<?xml version="1.0" encoding="utf-8"?>
<!-- Generator: Adobe Illustrator 16.0.0, SVG Export Plug-In . SVG Version: 6.00 Build 0)  -->
<!DOCTYPE svg PUBLIC "-//W3C//DTD SVG 1.0//EN" "http://www.w3.org/TR/2001/REC-SVG-20010904/DTD/svg10.dtd">
<svg version="1.0" id="Layer_1" xmlns="http://www.w3.org/2000/svg" xmlns:xlink="http://www.w3.org/1999/xlink" x="0px" y="0px"
	 width="283.46px" height="283.46px" viewBox="0 0 283.46 283.46" enable-background="new 0 0 283.46 283.46" xml:space="preserve">
<g>
	<g>
		<g>
			<g>
				<path d="M109.782,131.059l-9.648,21.342h4.538l0.842-1.872l6.216-3.649l6.091,3.658v-0.093l0.848,1.956h4.646l-9.505-21.342
					H109.782z M111.609,142.694l-3.514,2.103l3.644-8.001l3.679,8.142L111.609,142.694z"/>
				<polygon points="149.77,145.204 138.7,131.059 134.875,131.059 134.875,152.4 139.022,152.4 139.022,138.256 150.09,152.4 
					153.916,152.4 153.916,131.059 149.77,131.059 				"/>
				<polygon points="173.527,131.059 169.383,131.059 169.383,152.4 185.717,152.4 185.717,148.256 173.527,148.256 				"/>
				<polygon points="204.352,139.176 198.541,131.059 193.521,131.059 202.227,143.321 202.227,152.4 206.373,152.4 
					206.373,143.327 215.338,131.059 210.109,131.059 				"/>
				<polygon points="229.756,148.256 241.967,133.748 240.549,131.059 224.301,131.059 224.301,135.205 235.209,135.205 
					223.064,149.67 224.342,152.4 242.002,152.4 242.002,148.256 				"/>
			</g>
			<g>
				<rect x="84.269" y="110.353" width="1.442" height="62.755"/>
			</g>
		</g>
	</g>
	<linearGradient id="SVGID_1_" gradientUnits="userSpaceOnUse" x1="23.2769" y1="141.7305" x2="69.8462" y2="141.7305">
		<stop  offset="0" style="stop-color:#76C044"/>
		<stop  offset="1" style="stop-color:#2BACE2"/>
	</linearGradient>
	<path fill="url(#SVGID_1_)" d="M67.451,160.576c-0.214,0-0.418,0.039-0.615,0.088l-3.118-6.328
		c0.584-0.436,0.967-1.125,0.967-1.914c0-1.318-1.071-2.391-2.394-2.391c-0.227,0-0.439,0.037-0.647,0.098l-3.29-6.673
		c0.585-0.438,0.969-1.128,0.968-1.915c-0.001-1.321-1.072-2.393-2.395-2.393c-0.225,0-0.439,0.04-0.646,0.099l-3.153-6.396
		c0.587-0.437,0.97-1.128,0.97-1.914c0-1.322-1.073-2.393-2.395-2.393c-0.226,0-0.44,0.042-0.649,0.1l-3.071-6.235
		c0.587-0.436,0.972-1.13,0.972-1.918c0.001-1.322-1.071-2.395-2.394-2.395c-1.321,0-2.394,1.073-2.395,2.395
		c0,0.787,0.388,1.482,0.976,1.919l-3.073,6.235c-0.208-0.059-0.423-0.101-0.649-0.101c-1.322,0-2.394,1.07-2.394,2.395
		c0,0.785,0.383,1.478,0.969,1.911l-3.153,6.397c-0.205-0.059-0.419-0.099-0.645-0.097c-1.322,0-2.395,1.068-2.394,2.392
		c0,0.784,0.383,1.476,0.967,1.914l-3.291,6.673c-0.206-0.057-0.422-0.098-0.646-0.098c-1.324,0-2.396,1.07-2.395,2.393
		c-0.001,0.787,0.382,1.477,0.967,1.912l-3.119,6.328c-0.197-0.051-0.402-0.088-0.615-0.088c-1.322,0-2.394,1.07-2.394,2.393
		c-0.001,1.324,1.072,2.395,2.394,2.396c1.176,0,2.147-0.848,2.351-1.965h5.702c0.203,1.117,1.176,1.965,2.353,1.963
		c1.321,0.002,2.393-1.07,2.394-2.395c-0.002-0.791-0.389-1.484-0.978-1.918l3.089-6.336c0.209,0.062,0.425,0.102,0.653,0.102
		c1.321,0,2.394-1.07,2.394-2.393c0.001-0.795-0.39-1.492-0.987-1.93l3.271-6.703c0.251,0.088,0.515,0.144,0.795,0.146
		c0.244,0.001,0.477-0.047,0.698-0.116l3.365,6.701c-0.573,0.438-0.949,1.121-0.949,1.896c0.001,1.326,1.072,2.396,2.396,2.396
		c0.23,0,0.447-0.041,0.657-0.104l3.19,6.355c-0.577,0.436-0.957,1.123-0.957,1.902c0,1.324,1.073,2.395,2.396,2.396
		c1.173,0,2.146-0.85,2.35-1.965h5.246c0.203,1.115,1.177,1.965,2.352,1.965c1.321-0.002,2.396-1.072,2.396-2.396
		C69.846,161.646,68.773,160.576,67.451,160.576z M66.053,161.031c-0.49,0.354-0.841,0.887-0.953,1.506h-5.249
		c-0.114-0.635-0.476-1.178-0.983-1.531l2.846-6.266c0.186,0.047,0.376,0.076,0.577,0.076c0.227,0,0.442-0.039,0.651-0.1
		L66.053,161.031z M60.869,150.508c-0.478,0.355-0.819,0.881-0.93,1.488l-5.372,0.008c-0.114-0.65-0.487-1.213-1.016-1.57
		l2.84-6.564c0.172,0.043,0.351,0.065,0.535,0.067c0.228,0,0.443-0.042,0.652-0.102L60.869,150.508z M55.504,139.626
		c-0.478,0.354-0.819,0.877-0.929,1.485h-5.518c-0.122-0.666-0.516-1.232-1.066-1.582l3.071-6.295
		c0.204,0.056,0.415,0.096,0.64,0.098c0.227-0.002,0.441-0.042,0.65-0.101L55.504,139.626z M43.769,131.368h5.584
		c0.111,0.61,0.453,1.135,0.932,1.49l-3.093,6.339c-0.157-0.033-0.319-0.049-0.484-0.049c-0.223,0-0.433,0.04-0.636,0.096
		l-3.215-6.403C43.325,132.485,43.66,131.971,43.769,131.368z M45.918,122.784c0.205,0.059,0.417,0.1,0.643,0.1
		c0.225-0.001,0.438-0.041,0.644-0.1l3.075,6.238c-0.476,0.354-0.816,0.877-0.927,1.483h-5.584c-0.11-0.606-0.45-1.128-0.925-1.483
		L45.918,122.784z M40.768,133.231c0.209,0.059,0.424,0.099,0.648,0.099c0.234,0,0.454-0.044,0.669-0.104l3.209,6.393
		c-0.482,0.353-0.829,0.878-0.938,1.493l-5.81-0.001c-0.11-0.607-0.451-1.131-0.929-1.485L40.768,133.231z M35.542,143.836
		c0.21,0.059,0.425,0.099,0.652,0.101c0.208,0,0.402-0.034,0.593-0.083l3.06,6.627c-0.495,0.352-0.85,0.889-0.963,1.514h-5.703
		c-0.111-0.607-0.451-1.131-0.928-1.486L35.542,143.836z M30.179,154.715c0.209,0.061,0.426,0.104,0.652,0.102
		c0.229,0,0.447-0.039,0.656-0.102l3.157,6.346c-0.474,0.352-0.811,0.873-0.922,1.477h-5.701c-0.114-0.619-0.464-1.15-0.955-1.506
		L30.179,154.715z M36.716,160.674c-0.205-0.057-0.417-0.098-0.642-0.098c-0.229,0-0.447,0.041-0.657,0.102l-3.154-6.344
		c0.472-0.352,0.808-0.873,0.918-1.48h5.702c0.11,0.607,0.449,1.129,0.922,1.482L36.716,160.674z M41.861,150.125
		c-0.2-0.057-0.409-0.094-0.627-0.094c-0.211,0-0.409,0.033-0.604,0.084l-3.058-6.619c0.501-0.354,0.858-0.896,0.974-1.521h5.81
		c0.101,0.553,0.396,1.033,0.806,1.381L41.861,150.125z M48.17,143.424c0.455-0.354,0.78-0.86,0.889-1.447l5.516-0.002
		c0.119,0.647,0.493,1.204,1.021,1.557l-2.837,6.562c-0.176-0.039-0.357-0.066-0.544-0.066c-0.235,0-0.459,0.045-0.674,0.107
		L48.17,143.424z M53.647,154.33c0.468-0.352,0.805-0.867,0.918-1.463l5.378-0.008c0.112,0.629,0.476,1.174,0.982,1.527
		l-2.847,6.266c-0.186-0.047-0.375-0.076-0.576-0.076c-0.234,0-0.453,0.045-0.666,0.105L53.647,154.33z"/>
	<path d="M254.295,132.456c0.059-0.018,0.117-0.038,0.178-0.062c0.195-0.076,0.383-0.199,0.555-0.365
		c0.17-0.164,0.316-0.379,0.43-0.64c0.115-0.261,0.174-0.585,0.174-0.962c0-0.357-0.064-0.672-0.193-0.937
		c-0.129-0.264-0.301-0.481-0.514-0.649c-0.207-0.163-0.449-0.284-0.721-0.36c-0.258-0.073-0.529-0.11-0.805-0.11h-3.98v6.83h1.41
		v-2.642h1.947l1.268,2.642h1.596L254.295,132.456z M250.828,129.783h2.57c0.113,0,0.227,0.011,0.34,0.033
		c0.098,0.02,0.182,0.053,0.256,0.102c0.066,0.045,0.121,0.105,0.162,0.185c0.041,0.078,0.062,0.187,0.062,0.325
		c0,0.238-0.064,0.413-0.195,0.533c-0.137,0.125-0.348,0.188-0.625,0.188h-2.57V129.783z"/>
	<path d="M252.528,125.453c-3.492,0-6.334,2.841-6.334,6.333s2.842,6.333,6.334,6.333s6.333-2.841,6.333-6.333
		S256.021,125.453,252.528,125.453z M252.528,137.12c-2.941,0-5.334-2.393-5.334-5.333s2.393-5.333,5.334-5.333
		c2.94,0,5.333,2.393,5.333,5.333S255.469,137.12,252.528,137.12z"/>
</g>
</svg>
