<?xml version="1.0" encoding="UTF-8" standalone="no"?>
<svg
   xmlns:dc="http://purl.org/dc/elements/1.1/"
   xmlns:cc="http://creativecommons.org/ns#"
   xmlns:rdf="http://www.w3.org/1999/02/22-rdf-syntax-ns#"
   xmlns:svg="http://www.w3.org/2000/svg"
   xmlns="http://www.w3.org/2000/svg"
   viewBox="0 0 109.25333 40.893333"
   height="40.893333"
   width="109.25333"
   xml:space="preserve"
   id="svg2"
   version="1.1"><metadata
     id="metadata8"><rdf:RDF><cc:Work
         rdf:about=""><dc:format>image/svg+xml</dc:format><dc:type
           rdf:resource="http://purl.org/dc/dcmitype/StillImage" /></cc:Work></rdf:RDF></metadata><defs
     id="defs6" /><g
     transform="matrix(1.3333333,0,0,-1.3333333,0,40.893333)"
     id="g10"><g
       transform="scale(0.1)"
       id="g12"><path
         id="path14"
         style="fill:#5e83cb;fill-opacity:1;fill-rule:nonzero;stroke:none"
         d="M 169.48,63.0391 H 404.492 C 404.16,58.1289 399.66,44.7227 397.539,41.5977 H 169.48 v 21.4414" /><path
         id="path16"
         style="fill:#5e83cb;fill-opacity:1;fill-rule:nonzero;stroke:none"
         d="M 169.488,266.129 H 397.93 c 1.965,-3.531 6.406,-16.879 6.965,-21.441 H 169.488 v 21.441" /><path
         id="path18"
         style="fill:#5e83cb;fill-opacity:1;fill-rule:nonzero;stroke:none"
         d="m 211.855,144.273 h 163.02 c 5.309,-3.722 15.152,-15.949 19.09,-21.441 h -182.11 v 21.441" /><path
         id="path20"
         style="fill:#5e83cb;fill-opacity:1;fill-rule:nonzero;stroke:none"
         d="m 338.977,82.2109 h 67.949 c 0.176,5.6055 -2.031,17.1407 -3.711,21.4411 H 338.977 V 82.2109" /><path
         id="path22"
         style="fill:#5e83cb;fill-opacity:1;fill-rule:nonzero;stroke:none"
         d="m 211.855,163.453 h 163.274 c 5.309,3.727 15.066,15.945 19.004,21.442 H 211.855 v -21.442" /><path
         id="path24"
         style="fill:#5e83cb;fill-opacity:1;fill-rule:nonzero;stroke:none"
         d="m 338.977,225.508 h 67.695 c -0.024,-4.969 -1.867,-17.133 -3.535,-21.442 h -64.16 v 21.442" /><path
         id="path26"
         style="fill:#5e83cb;fill-opacity:1;fill-rule:nonzero;stroke:none"
         d="M 169.48,22.418 H 381.973 C 363.145,6.46094 346.516,0.976563 317.344,0.976563 H 296.309 169.48 V 22.418" /><path
         id="path28"
         style="fill:#5e83cb;fill-opacity:1;fill-rule:nonzero;stroke:none"
         d="M 169.488,285.309 H 381.973 C 363.145,301.27 346.516,306.75 317.344,306.75 H 296.316 169.488 v -21.441" /><path
         id="path30"
         style="fill:#5e83cb;fill-opacity:1;fill-rule:nonzero;stroke:none"
         d="M 148.301,285.309 H 0 v 21.441 h 148.301 v -21.441" /><path
         id="path32"
         style="fill:#5e83cb;fill-opacity:1;fill-rule:nonzero;stroke:none"
         d="M 148.301,244.688 H 0 v 21.441 h 148.301 v -21.441" /><path
         id="path34"
         style="fill:#5e83cb;fill-opacity:1;fill-rule:nonzero;stroke:none"
         d="M 148.301,41.5977 H 0 V 63.0391 H 148.301 V 41.5977" /><path
         id="path36"
         style="fill:#5e83cb;fill-opacity:1;fill-rule:nonzero;stroke:none"
         d="M 105.93,82.2109 H 42.3672 V 103.652 H 105.93 V 82.2109" /><path
         id="path38"
         style="fill:#5e83cb;fill-opacity:1;fill-rule:nonzero;stroke:none"
         d="M 105.93,122.832 H 42.3672 v 21.441 H 105.93 v -21.441" /><path
         id="path40"
         style="fill:#5e83cb;fill-opacity:1;fill-rule:nonzero;stroke:none"
         d="M 105.93,163.453 H 42.3672 v 21.442 H 105.93 v -21.442" /><path
         id="path42"
         style="fill:#5e83cb;fill-opacity:1;fill-rule:nonzero;stroke:none"
         d="M 105.93,204.066 H 42.3672 v 21.442 H 105.93 v -21.442" /><path
         id="path44"
         style="fill:#5e83cb;fill-opacity:1;fill-rule:nonzero;stroke:none"
         d="M 275.41,82.2109 H 211.855 V 103.652 H 275.41 V 82.2109" /><path
         id="path46"
         style="fill:#5e83cb;fill-opacity:1;fill-rule:nonzero;stroke:none"
         d="m 275.41,204.066 h -63.555 v 21.442 h 63.555 v -21.442" /><path
         id="path48"
         style="fill:#5e83cb;fill-opacity:1;fill-rule:nonzero;stroke:none"
         d="m 563.809,82.2109 h 58.789 l 7.461,21.4411 h -73.711 l 7.461,-21.4411" /><path
         id="path50"
         style="fill:#5e83cb;fill-opacity:1;fill-rule:nonzero;stroke:none"
         d="m 549.668,122.832 h 87.07 l 7.461,21.441 H 542.207 l 7.461,-21.441" /><path
         id="path52"
         style="fill:#5e83cb;fill-opacity:1;fill-rule:nonzero;stroke:none"
         d="M 148.301,0.976563 H 0 V 22.418 H 148.301 V 0.976563" /><path
         id="path54"
         style="fill:#5e83cb;fill-opacity:1;fill-rule:nonzero;stroke:none"
         d="m 592.102,0.976563 h 2.207 L 601.777,22.418 h -17.148 l 7.473,-21.441437" /><path
         id="path56"
         style="fill:#5e83cb;fill-opacity:1;fill-rule:nonzero;stroke:none"
         d="m 529.648,82.2109 h -63.562 v 21.4411 h 63.562 V 82.2109" /><path
         id="path58"
         style="fill:#5e83cb;fill-opacity:1;fill-rule:nonzero;stroke:none"
         d="m 529.648,122.832 h -63.562 v 21.441 h 63.562 v -21.441" /><path
         id="path60"
         style="fill:#5e83cb;fill-opacity:1;fill-rule:nonzero;stroke:none"
         d="M 529.641,0.976563 H 423.723 V 22.418 H 529.641 V 0.976563" /><path
         id="path62"
         style="fill:#5e83cb;fill-opacity:1;fill-rule:nonzero;stroke:none"
         d="M 529.641,41.5977 H 423.723 V 63.0391 H 529.641 V 41.5977" /><path
         id="path64"
         style="fill:#5e83cb;fill-opacity:1;fill-rule:nonzero;stroke:none"
         d="m 577.961,41.5977 h 30.496 l 7.461,21.4414 h -45.43 l 7.473,-21.4414" /><path
         id="path66"
         style="fill:#5e83cb;fill-opacity:1;fill-rule:nonzero;stroke:none"
         d="m 720.32,82.2109 h -63.55 v 21.4411 h 63.55 V 82.2109" /><path
         id="path68"
         style="fill:#5e83cb;fill-opacity:1;fill-rule:nonzero;stroke:none"
         d="m 720.32,122.832 h -63.55 v 21.441 h 63.55 v -21.441" /><path
         id="path70"
         style="fill:#5e83cb;fill-opacity:1;fill-rule:nonzero;stroke:none"
         d="M 762.695,0.976563 H 656.758 V 22.418 H 762.695 V 0.976563" /><path
         id="path72"
         style="fill:#5e83cb;fill-opacity:1;fill-rule:nonzero;stroke:none"
         d="M 762.695,41.5977 H 656.77 V 63.0391 H 762.695 V 41.5977" /><path
         id="path74"
         style="fill:#5e83cb;fill-opacity:1;fill-rule:nonzero;stroke:none"
         d="M 572.059,225.508 H 466.086 V 204.066 H 579.66 l -7.601,21.442" /><path
         id="path76"
         style="fill:#5e83cb;fill-opacity:1;fill-rule:nonzero;stroke:none"
         d="m 599.961,184.895 -6.758,-19.247 -6.746,19.247 H 466.094 v -21.442 h 63.554 v 16.891 l 5.879,-16.891 h 115.352 l 5.879,16.891 v -0.125 l 0.012,0.008 v -16.774 h 63.55 v 21.442 H 599.961" /><path
         id="path78"
         style="fill:#5e83cb;fill-opacity:1;fill-rule:nonzero;stroke:none"
         d="m 543.293,306.742 h -119.57 v -21.433 h 127.168 l -7.598,21.433" /><path
         id="path80"
         style="fill:#5e83cb;fill-opacity:1;fill-rule:nonzero;stroke:none"
         d="M 557.676,266.129 H 423.723 v -21.441 h 141.55 l -7.597,21.441" /><path
         id="path82"
         style="fill:#5e83cb;fill-opacity:1;fill-rule:nonzero;stroke:none"
         d="M 614.348,225.508 H 720.32 V 204.066 H 606.75 l 7.598,21.442" /><path
         id="path84"
         style="fill:#5e83cb;fill-opacity:1;fill-rule:nonzero;stroke:none"
         d="M 643.113,306.742 H 762.695 V 285.309 H 635.527 l 7.586,21.433" /><path
         id="path86"
         style="fill:#5e83cb;fill-opacity:1;fill-rule:nonzero;stroke:none"
         d="M 628.73,266.129 H 762.695 V 244.688 H 621.133 l 7.597,21.441" /><path
         id="path88"
         style="fill:#5e83cb;fill-opacity:1;fill-rule:nonzero;stroke:none"
         d="m 785.82,16.9375 c 0,9.2266 7.5,16.7578 16.758,16.7578 9.231,0 16.68,-7.5312 16.68,-16.7578 0,-9.30469 -7.449,-16.8398437 -16.68,-16.8398437 -9.258,0 -16.758,7.5351537 -16.758,16.8398437 z m 30.789,0 c 0,8.1602 -5.918,14.543 -14.031,14.543 -8.152,0 -14.109,-6.3828 -14.109,-14.543 0,-8.24219 5.957,-14.62109 14.109,-14.62109 8.113,0 14.031,6.3789 14.031,14.62109 z m -5.691,-9.39453 h -2.734 l -5.34,8.64453 h -4.192 V 7.54297 h -2.297 V 26.293 h 8.165 c 4.945,0 6.625,-1.8594 6.625,-4.9649 0,-3.6758 -2.559,-5.0468 -5.872,-5.1406 z m -8.777,10.46483 c 2.644,0 6.531,-0.4453 6.531,3.3711 0,2.918 -2.383,3.2734 -4.676,3.2734 h -5.344 v -6.6445 h 3.489" /></g></g></svg>