<?xml version="1.0" encoding="UTF-8" standalone="no"?>
<svg
   xmlns:dc="http://purl.org/dc/elements/1.1/"
   xmlns:cc="http://creativecommons.org/ns#"
   xmlns:rdf="http://www.w3.org/1999/02/22-rdf-syntax-ns#"
   xmlns:svg="http://www.w3.org/2000/svg"
   xmlns="http://www.w3.org/2000/svg"
   viewBox="0 0 848 262.66666"
   height="262.66666"
   width="848"
   xml:space="preserve"
   id="svg2"
   version="1.1"><metadata
     id="metadata8"><rdf:RDF><cc:Work
         rdf:about=""><dc:format>image/svg+xml</dc:format><dc:type
           rdf:resource="http://purl.org/dc/dcmitype/StillImage" /></cc:Work></rdf:RDF></metadata><defs
     id="defs6"><clipPath
       id="clipPath26"
       clipPathUnits="userSpaceOnUse"><path
         id="path24"
         d="M 0,197 H 636 V 0 H 0 Z" /></clipPath><clipPath
       id="clipPath66"
       clipPathUnits="userSpaceOnUse"><path
         id="path64"
         d="m 43.38,130.194 7.081,-51.274 92.145,42.914 1.155,8.36 -50.192,27.46 z m 7.584,-54.921 42.605,-35.927 42.606,35.927 3.746,27.123 z" /></clipPath><radialGradient
       id="radialGradient78"
       spreadMethod="pad"
       gradientTransform="matrix(95.706177,0,0,-95.706177,143.40225,130.74445)"
       gradientUnits="userSpaceOnUse"
       r="1"
       cy="0"
       cx="0"
       fy="0"
       fx="0"><stop
         id="stop72"
         offset="0"
         style="stop-opacity:1;stop-color:#3eb8ea" /><stop
         id="stop74"
         offset="0.0981918"
         style="stop-opacity:1;stop-color:#3eb8ea" /><stop
         id="stop76"
         offset="1"
         style="stop-opacity:1;stop-color:#366cb5" /></radialGradient><clipPath
       id="clipPath88"
       clipPathUnits="userSpaceOnUse"><path
         id="path86"
         d="M 0,197 H 636 V 0 H 0 Z" /></clipPath></defs><g
     transform="matrix(1.3333333,0,0,-1.3333333,0,262.66667)"
     id="g10"><g
       transform="translate(183.6235,125.9409)"
       id="g12"><path
         id="path14"
         style="fill:#3eb8ea;fill-opacity:1;fill-rule:nonzero;stroke:none"
         d="M 0,0 -7.959,-39.797 H 10.878 L 9.352,-47.424 H -18.273 L -8.788,0 Z" /></g><g
       transform="translate(209.1909,78.5166)"
       id="g16"><path
         id="path18"
         style="fill:#3eb8ea;fill-opacity:1;fill-rule:nonzero;stroke:none"
         d="m 0,0 h -9.353 l 29.615,47.424 h 9.452 L 40.791,0 h -9.12 L 28.852,12.934 H 13.1 l 4.543,7.628 h 9.551 L 23.28,38.371 Z" /></g><g
       id="g20"><g
         clip-path="url(#clipPath26)"
         id="g22"><g
           transform="translate(293.2031,80.5068)"
           id="g28"><path
             id="path30"
             style="fill:#3eb8ea;fill-opacity:1;fill-rule:nonzero;stroke:none"
             d="m 0,0 c -4.399,-1.548 -9.198,-2.322 -14.393,-2.322 -17.024,0 -23.89,8.236 -20.594,24.708 3.117,15.587 13.187,23.38 30.212,23.38 5.195,0 9.684,-0.774 13.464,-2.322 L 7.097,35.485 c -3.737,1.768 -7.981,2.653 -12.734,2.653 -11.387,0 -18.13,-5.251 -20.23,-15.752 -2.279,-11.387 2.276,-17.08 13.663,-17.08 4.753,0 9.352,0.884 13.796,2.653 z" /></g><g
           transform="translate(355.0098,125.9409)"
           id="g32"><path
             id="path34"
             style="fill:#366cb5;fill-opacity:1;fill-rule:nonzero;stroke:none"
             d="M 0,0 H 8.589 L 6.865,-34.059 26,0 h 8.457 L 39.465,-32.732 51.371,0 h 8.987 L 41.953,-47.424 h -8.357 l -5.605,37.21 -21.425,-37.21 h -8.257 z" /></g><g
           transform="translate(438.3477,85.813)"
           id="g36"><path
             id="path38"
             style="fill:#366cb5;fill-opacity:1;fill-rule:nonzero;stroke:none"
             d="M 0,0 C 9.551,0 15.433,5.516 17.644,16.549 19.81,27.404 16.118,32.832 6.567,32.832 -3.228,32.832 -9.208,27.404 -11.375,16.549 -13.585,5.516 -9.794,0 0,0 m -20.528,16.35 c 3.206,16.073 12.746,24.11 28.621,24.11 15.631,0 21.843,-8.037 18.638,-24.11 C 23.524,0.364 14.106,-7.628 -1.525,-7.628 c -15.167,0 -21.501,7.992 -19.003,23.978" /></g><g
           transform="translate(471.3433,78.5835)"
           id="g40"><path
             id="path42"
             style="fill:#366cb5;fill-opacity:1;fill-rule:nonzero;stroke:none"
             d="m 0,0 9.485,47.357 h 21.556 c 9.684,0 13.675,-4.233 11.972,-12.701 C 41.664,27.957 36.945,23.215 28.853,20.428 L 39.797,-0.067 H 29.549 l -10.314,20.661 0.796,4.013 c 8.136,1.437 12.713,4.698 13.73,9.784 0.707,3.492 -0.907,5.239 -4.843,5.239 L 16.88,39.63 8.954,0 Z" /></g><g
           transform="translate(321.8975,98.5806)"
           id="g44"><path
             id="path46"
             style="fill:#3eb8ea;fill-opacity:1;fill-rule:nonzero;stroke:none"
             d="m 0,0 h 17.268 l 1.559,7.86 H 1.646 Z" /></g><g
           transform="translate(313.2979,125.9409)"
           id="g48"><path
             id="path50"
             style="fill:#3eb8ea;fill-opacity:1;fill-rule:nonzero;stroke:none"
             d="m 0,0 -9.485,-47.424 h 32.932 l 1.525,7.627 H 0.663 L 7.196,-7.561 H 30.941 L 32.467,0 Z" /></g><g
           transform="translate(527.1562,125.9409)"
           id="g52"><path
             id="path54"
             style="fill:#366cb5;fill-opacity:1;fill-rule:nonzero;stroke:none"
             d="m 0,0 -9.486,-47.424 h 8.789 L 8.788,0 Z" /></g><g
           transform="translate(567.9805,125.9409)"
           id="g56"><path
             id="path58"
             style="fill:#366cb5;fill-opacity:1;fill-rule:nonzero;stroke:none"
             d="m 0,0 h -11.077 l -20.234,-17.818 -1.844,-9.222 14.616,-20.384 h 11.508 l -19.268,24.409 z" /></g></g></g><g
       id="g60"><g
         clip-path="url(#clipPath66)"
         id="g62"><g
           id="g68"><g
             id="g70"><path
               id="path80"
               style="fill:url(#radialGradient78);stroke:none"
               d="m 43.38,130.194 7.081,-51.274 92.145,42.914 1.155,8.36 -50.192,27.46 z m 7.584,-54.921 42.605,-35.927 42.606,35.927 3.746,27.123 z" /></g></g></g></g><g
       id="g82"><g
         clip-path="url(#clipPath88)"
         id="g84"><g
           transform="translate(578.5122,133.896)"
           id="g90"><path
             id="path92"
             style="fill:#366cb5;fill-opacity:1;fill-rule:nonzero;stroke:none"
             d="M 0,0 H -2.742 V -7.623 H -3.896 V 0 H -6.633 V 0.908 H 0 Z" /></g><g
           transform="translate(581.2427,134.8042)"
           id="g94"><path
             id="path96"
             style="fill:#366cb5;fill-opacity:1;fill-rule:nonzero;stroke:none"
             d="M 0,0 2.719,-6.932 H 2.754 L 5.473,0 H 6.949 V -8.531 H 5.795 v 3.375 L 5.912,-1.687 5.883,-1.682 3.117,-8.531 H 2.35 l -2.754,6.832 -0.03,-0.006 0.112,-3.451 V -8.531 H -1.477 V 0 Z" /></g></g></g></g></svg>