<?xml version="1.0" encoding="UTF-8" standalone="no"?>
<svg
   xmlns:dc="http://purl.org/dc/elements/1.1/"
   xmlns:cc="http://creativecommons.org/ns#"
   xmlns:rdf="http://www.w3.org/1999/02/22-rdf-syntax-ns#"
   xmlns:svg="http://www.w3.org/2000/svg"
   xmlns="http://www.w3.org/2000/svg"
   viewBox="0 0 1121.52 188.41333"
   height="188.41333"
   width="1121.52"
   xml:space="preserve"
   id="svg2"
   version="1.1"><metadata
     id="metadata8"><rdf:RDF><cc:Work
         rdf:about=""><dc:format>image/svg+xml</dc:format><dc:type
           rdf:resource="http://purl.org/dc/dcmitype/StillImage" /></cc:Work></rdf:RDF></metadata><defs
     id="defs6" /><g
     transform="matrix(1.3333333,0,0,-1.3333333,0,188.41333)"
     id="g10"><g
       transform="scale(0.1)"
       id="g12"><path
         id="path14"
         style="fill:#000000;fill-opacity:1;fill-rule:nonzero;stroke:none"
         d="m 874.43,781.082 h -17.989 l -327.343,-0.008 74.574,336.586 h 319.57 c 105.338,0 167.008,-56.52 167.008,-138.801 0,-107.863 -79.61,-197.777 -215.82,-197.777 z m 570.35,231.238 c 0,231.18 -179.8,400.77 -493.241,400.77 H 313.074 L 0,0.0117188 H 356.047 L 463.629,485.563 H 672.18 L 878.66,0.0117188 H 1234.1 L 1013.13,508.715 c 264.63,41.105 431.65,251.781 431.65,503.605" /><path
         id="path16"
         style="fill:#000000;fill-opacity:1;fill-rule:nonzero;stroke:none"
         d="m 2069.63,529.234 304.83,520.816 115.38,-520.808 z M 2230.2,1413.09 1403.46,0.0117188 h 355.25 L 1896.99,234.34 2555.27,233.988 2607.11,0.0117188 H 2962.2 L 2650.69,1413.08 l -420.49,0.01" /><path
         id="path18"
         style="fill:#000000;fill-opacity:1;fill-rule:nonzero;stroke:none"
         d="m 3976.16,781.082 h -315.77 l 74.08,336.578 h 275.08 c 107.91,0 174.69,-51.39 174.69,-138.801 0,-107.863 -82.23,-197.777 -208.08,-197.777 z m 69.33,632.008 -601.29,-0.01 L 3131.12,0.0117188 h 355.03 L 3594.83,485.941 l 396.71,-0.378 c 339.16,0 544.65,254.355 544.65,521.627 0,238.91 -187.5,405.9 -490.7,405.9" /><path
         id="path20"
         style="fill:#000000;fill-opacity:1;fill-rule:nonzero;stroke:none"
         d="M 5205.19,1413.08 H 4849.12 L 4536.05,0.0117188 H 4892.1 L 5205.19,1413.08" /><path
         id="path22"
         style="fill:#ea5709;fill-opacity:1;fill-rule:nonzero;stroke:none"
         d="m 7770.99,1413.09 c -83.1,0 -925.29,0 -1122.1,0 17.06,-17.23 33.68,-34.94 49.26,-53.66 125.8,-151.06 192.27,-341.29 192.27,-550.117 0,-322.278 -137,-613.122 -356.66,-809.3012812 h 687.27 L 7547.19,805.398 h -409.05 l 68.59,312.422 h 811.38 L 7591.91,0.0117188 c 0,0 55.57,0 166.7,0 C 8148.15,-2.46094 8411.37,318.199 8411.37,707.754 c 0,389.536 -250.84,705.336 -640.38,705.336" /><path
         id="path24"
         style="fill:#000000;fill-opacity:1;fill-rule:nonzero;stroke:none"
         d="m 5788.83,295.121 h -196.41 l 182.21,822.359 185.23,0.18 c 203.84,0 318.16,-151.633 318.16,-340.976 0,-255 -183.19,-481.563 -489.19,-481.563 z m 713.42,887.679 c -122.81,147.48 -324.11,230.29 -561.98,230.29 H 5484.08 L 5171,0.0117188 h 573.96 c 222.55,0 394.52,49.0780812 525.16,127.5972812 266.03,159.981 360.49,442.219 360.49,681.704 0,149.503 -46.95,275.707 -128.36,373.487" /></g></g></svg>