<?xml version="1.0" encoding="utf-8"?>
<!-- Generator: Adobe Illustrator 16.0.0, SVG Export Plug-In . SVG Version: 6.00 Build 0)  -->
<!DOCTYPE svg PUBLIC "-//W3C//DTD SVG 1.1//EN" "http://www.w3.org/Graphics/SVG/1.1/DTD/svg11.dtd">
<svg version="1.1" id="Layer_1" xmlns="http://www.w3.org/2000/svg" xmlns:xlink="http://www.w3.org/1999/xlink" x="0px" y="0px"
	 width="464.977px" height="116.152px" viewBox="0 0 464.977 116.152" enable-background="new 0 0 464.977 116.152"
	 xml:space="preserve">
<g>
	<g>
		<path fill="#BABCBE" d="M92.214,33.104l-0.471-1.451c0.832-0.32,1.424-1.122,1.424-2.066c0-1.229-0.994-2.223-2.223-2.223
			c-0.832,0-1.547,0.462-1.928,1.139l-1.562-0.697c-2.541-1.137-5.129-2.105-7.754-2.93c0.025-0.109,0.043-0.221,0.043-0.338
			c0-0.801-0.65-1.451-1.451-1.451c-0.635,0-1.169,0.41-1.366,0.98c-5.433-1.469-11.029-2.282-16.74-2.436
			c0.001-0.014,0.005-0.026,0.005-0.039c0-1.229-0.995-2.223-2.223-2.223c-1.227,0-2.223,0.994-2.223,2.223
			c0,0.016,0.006,0.031,0.006,0.049c-5.678,0.185-11.238,1.025-16.64,2.514c-0.169-0.614-0.726-1.068-1.394-1.068
			c-0.801,0-1.45,0.65-1.45,1.451c0,0.154,0.03,0.301,0.075,0.441c-2.711,0.864-5.383,1.885-8,3.082l-1.383,0.632
			c-0.344-0.782-1.123-1.329-2.033-1.329c-1.227,0-2.222,0.994-2.222,2.223c0,0.961,0.614,1.772,1.47,2.081l-0.541,1.718
			c-1.74,5.516-2.109,17.479-2.109,19.604c0,10.94,3.881,21.142,10.484,29.11c1.148,1.383,2.381,2.697,3.686,3.938
			c-0.232,0.257-0.377,0.595-0.377,0.967c0,0.802,0.65,1.451,1.451,1.451c0.432,0,0.814-0.192,1.08-0.491
			c4.404,3.691,9.549,6.58,15.24,8.416c0.891,0.287,1.797,0.549,2.715,0.783l0.018,0.006c-0.044,0.176-0.076,0.357-0.076,0.547
			c0,1.229,0.996,2.223,2.223,2.223c1.228,0,2.223-0.994,2.223-2.223c0-0.189-0.031-0.371-0.076-0.547l0.021-0.006
			c0.939-0.239,1.865-0.508,2.775-0.8c5.648-1.832,10.759-4.702,15.141-8.366c0.264,0.28,0.639,0.458,1.055,0.458
			c0.8,0,1.45-0.649,1.45-1.451c0-0.356-0.134-0.679-0.347-0.931c1.25-1.188,2.43-2.439,3.533-3.756
			c6.717-8.002,10.668-18.287,10.668-29.329C94.411,50.836,94.029,38.721,92.214,33.104"/>
		<linearGradient id="SVGID_1_" gradientUnits="userSpaceOnUse" x1="90.2852" y1="28.1812" x2="-16.5789" y2="108.6815">
			<stop  offset="0" style="stop-color:#F1F1F1"/>
			<stop  offset="1" style="stop-color:#BABCBE"/>
		</linearGradient>
		<path fill="url(#SVGID_1_)" d="M56.51,20.189c-6.423,0.141-12.704,1.121-18.774,2.926c-3.191,0.946-6.328,2.121-9.393,3.523
			l-2.901,1.324l-0.438,0.199l-0.199,0.09l-1.17,3.711c-1.74,5.514-2.109,17.479-2.109,19.604c0,10.941,3.881,21.141,10.484,29.109
			c1.451,1.748,3.027,3.391,4.727,4.906c4.641,4.152,10.177,7.384,16.354,9.375c0.891,0.289,1.797,0.549,2.715,0.785l2.166,0.553
			l0.117-0.029l0.2-0.053l1.849-0.471c0.939-0.24,1.865-0.509,2.776-0.802c6.115-1.983,11.603-5.181,16.215-9.29
			c1.657-1.475,3.198-3.064,4.616-4.754c6.717-8.002,10.668-18.289,10.668-29.33c0-2.153-0.382-14.269-2.197-19.885l-1.201-3.711
			L90.7,27.83l-0.129-0.058l-3.117-1.39c-3.016-1.35-6.096-2.476-9.23-3.385c-6.051-1.761-12.312-2.699-18.713-2.813
			c-0.443-0.011-0.887-0.016-1.33-0.016C57.625,20.169,57.067,20.176,56.51,20.189"/>
		<path fill="#BABCBE" d="M90.785,28.178c-7.063,1.603-13.794,4.857-19.467,9.412c-5.503,4.42-10.033,10.087-13.138,16.402v-2.184
			c1.012-12.342,8.706-23.247,20.193-28.269c0.051-0.023,0.075-0.083,0.053-0.136c-0.025-0.053-0.084-0.074-0.137-0.053
			c-10.979,4.801-18.512,14.945-20.109,26.596v-29.33c0-0.057-0.046-0.104-0.102-0.104c-0.058,0-0.104,0.047-0.104,0.104v31.182
			c-0.006,0.061-0.016,0.12-0.021,0.182c-0.949-12.377-8.611-23.385-20.069-28.51c-0.05-0.023-0.112-0.002-0.136,0.051
			s0,0.113,0.053,0.137C49.7,28.98,57.464,40.691,57.818,53.662c-3.153-6.146-7.664-11.647-13.109-15.932
			c-5.72-4.502-12.489-7.689-19.577-9.22c-0.061-0.017-0.109,0.022-0.121,0.078c-0.013,0.056,0.023,0.11,0.078,0.123
			c7.057,1.522,13.797,4.698,19.492,9.181c5.534,4.354,10.106,9.967,13.255,16.241c0.003,0.15,0.017,0.3,0.017,0.45
			c0,13.814-8.263,26.119-21.048,31.352c-0.054,0.021-0.079,0.082-0.056,0.135c0.015,0.039,0.053,0.062,0.094,0.062
			c0.014,0,0.027-0.002,0.039-0.007c12.17-4.979,20.256-16.331,21.094-29.31v39.927c0,0.056,0.046,0.103,0.104,0.103
			c0.056,0,0.102-0.047,0.102-0.103V58.037c1.252,12.465,9.196,23.266,20.982,28.089c0.014,0.005,0.025,0.007,0.039,0.007
			c0.04,0,0.078-0.023,0.095-0.062c0.022-0.053-0.003-0.113-0.056-0.135c-12.787-5.232-21.049-17.537-21.049-31.352
			c0-0.012-0.01-0.019-0.012-0.028v-0.12c0-0.002,0.002-0.002,0.004-0.002c3.094-6.432,7.68-12.201,13.263-16.684
			c5.649-4.535,12.352-7.776,19.384-9.373c0.056-0.012,0.09-0.066,0.078-0.121C90.896,28.201,90.849,28.166,90.785,28.178"/>
		<g>
			<defs>
				<path id="SVGID_126_" d="M22.729,28.203c0,1.227,0.995,2.223,2.224,2.223c1.227,0,2.221-0.996,2.221-2.223
					c0-1.228-0.994-2.223-2.221-2.223C23.724,25.98,22.729,26.976,22.729,28.203"/>
			</defs>
			<clipPath id="SVGID_2_">
				<use xlink:href="#SVGID_126_"  overflow="visible"/>
			</clipPath>
			
				<linearGradient id="SVGID_4_" gradientUnits="userSpaceOnUse" x1="-2686.293" y1="253.0645" x2="-2685.8906" y2="253.0645" gradientTransform="matrix(11.0421 0 0 -11.0421 29685.0488 2822.5608)">
				<stop  offset="0" style="stop-color:#008985"/>
				<stop  offset="1" style="stop-color:#015A60"/>
			</linearGradient>
			<rect x="22.729" y="25.98" clip-path="url(#SVGID_2_)" fill="url(#SVGID_4_)" width="4.444" height="4.445"/>
		</g>
		<path fill="#FFFFFF" d="M24.95,27.057c-0.633,0-1.145,0.514-1.145,1.146s0.512,1.145,1.145,1.145s1.146-0.512,1.146-1.145
			S25.583,27.057,24.95,27.057 M24.95,29.146c-0.52,0-0.943-0.424-0.943-0.943c0-0.521,0.424-0.943,0.943-0.943
			c0.521,0,0.943,0.422,0.943,0.943C25.894,28.723,25.472,29.146,24.95,29.146"/>
		<g>
			<defs>
				<path id="SVGID_129_" d="M36.423,23.156c0,0.76,0.615,1.375,1.376,1.375s1.376-0.615,1.376-1.375
					c0-0.762-0.615-1.377-1.376-1.377S36.423,22.395,36.423,23.156"/>
			</defs>
			<clipPath id="SVGID_5_">
				<use xlink:href="#SVGID_129_"  overflow="visible"/>
			</clipPath>
			
				<linearGradient id="SVGID_7_" gradientUnits="userSpaceOnUse" x1="-2529.7695" y1="243.3184" x2="-2529.3672" y2="243.3184" gradientTransform="matrix(6.839 0 0 -6.839 17337.5156 1687.2054)">
				<stop  offset="0" style="stop-color:#008985"/>
				<stop  offset="1" style="stop-color:#015A60"/>
			</linearGradient>
			<rect x="36.423" y="21.779" clip-path="url(#SVGID_5_)" fill="url(#SVGID_7_)" width="2.752" height="2.752"/>
		</g>
		<path fill="#FFFFFF" d="M37.799,22.446c-0.392,0-0.71,0.317-0.71,0.71c0,0.391,0.318,0.709,0.71,0.709s0.71-0.318,0.71-0.709
			C38.509,22.764,38.19,22.446,37.799,22.446 M37.799,23.74c-0.323,0-0.585-0.262-0.585-0.584c0-0.324,0.262-0.585,0.585-0.585
			s0.585,0.261,0.585,0.585C38.384,23.479,38.122,23.74,37.799,23.74"/>
		<g>
			<defs>
				<path id="SVGID_132_" d="M55.783,96.254c0,1.227,0.995,2.223,2.222,2.223s2.223-0.996,2.223-2.223
					c0-1.228-0.996-2.223-2.223-2.223S55.783,95.026,55.783,96.254"/>
			</defs>
			<clipPath id="SVGID_8_">
				<use xlink:href="#SVGID_132_"  overflow="visible"/>
			</clipPath>
			
				<linearGradient id="SVGID_10_" gradientUnits="userSpaceOnUse" x1="-2690.7373" y1="262.2119" x2="-2690.335" y2="262.2119" gradientTransform="matrix(11.0421 0 0 -11.0421 29767.1738 2991.6233)">
				<stop  offset="0" style="stop-color:#0891D0"/>
				<stop  offset="1" style="stop-color:#042540"/>
			</linearGradient>
			<rect x="55.783" y="94.031" clip-path="url(#SVGID_8_)" fill="url(#SVGID_10_)" width="4.444" height="4.445"/>
		</g>
		<path fill="#FFFFFF" d="M58.005,95.109c-0.632,0-1.145,0.512-1.145,1.145s0.513,1.145,1.145,1.145
			c0.633,0,1.145-0.512,1.145-1.145S58.638,95.109,58.005,95.109 M58.005,97.197c-0.521,0-0.943-0.422-0.943-0.943
			s0.422-0.944,0.943-0.944s0.943,0.423,0.943,0.944S58.526,97.197,58.005,97.197"/>
		<g>
			<defs>
				<path id="SVGID_135_" d="M88.688,28.203c0,1.227,0.996,2.223,2.223,2.223s2.223-0.996,2.223-2.223
					c0-1.228-0.996-2.223-2.223-2.223S88.688,26.976,88.688,28.203"/>
			</defs>
			<clipPath id="SVGID_11_">
				<use xlink:href="#SVGID_135_"  overflow="visible"/>
			</clipPath>
			
				<linearGradient id="SVGID_13_" gradientUnits="userSpaceOnUse" x1="-2695.1611" y1="253.0645" x2="-2694.7588" y2="253.0645" gradientTransform="matrix(11.0421 0 0 -11.0421 29848.9219 2822.5608)">
				<stop  offset="0" style="stop-color:#008985"/>
				<stop  offset="1" style="stop-color:#015A60"/>
			</linearGradient>
			<rect x="88.688" y="25.98" clip-path="url(#SVGID_11_)" fill="url(#SVGID_13_)" width="4.445" height="4.445"/>
		</g>
		<path fill="#FFFFFF" d="M90.911,27.057c-0.633,0-1.145,0.514-1.145,1.146s0.512,1.145,1.145,1.145
			c0.632,0,1.145-0.512,1.145-1.145S91.543,27.057,90.911,27.057 M90.911,29.146c-0.521,0-0.943-0.424-0.943-0.943
			c0-0.521,0.422-0.943,0.943-0.943s0.943,0.422,0.943,0.943C91.854,28.723,91.433,29.146,90.911,29.146"/>
		<g>
			<defs>
				<path id="SVGID_138_" d="M55.783,20.209c0,1.227,0.996,2.223,2.222,2.223c1.229,0,2.223-0.996,2.223-2.223
					s-0.994-2.223-2.223-2.223C56.779,17.986,55.783,18.982,55.783,20.209"/>
			</defs>
			<clipPath id="SVGID_14_">
				<use xlink:href="#SVGID_138_"  overflow="visible"/>
			</clipPath>
			
				<linearGradient id="SVGID_16_" gradientUnits="userSpaceOnUse" x1="-2690.7373" y1="251.9893" x2="-2690.335" y2="251.9893" gradientTransform="matrix(11.0421 0 0 -11.0421 29767.1738 2802.6936)">
				<stop  offset="0" style="stop-color:#008985"/>
				<stop  offset="1" style="stop-color:#015A60"/>
			</linearGradient>
			<rect x="55.783" y="17.986" clip-path="url(#SVGID_14_)" fill="url(#SVGID_16_)" width="4.444" height="4.445"/>
		</g>
		<path fill="#FFFFFF" d="M58.005,19.064c-0.632,0-1.145,0.512-1.145,1.145s0.513,1.145,1.145,1.145
			c0.633,0,1.145-0.512,1.145-1.145S58.638,19.064,58.005,19.064 M58.005,21.152c-0.521,0-0.942-0.422-0.942-0.943
			s0.421-0.943,0.942-0.943s0.943,0.422,0.943,0.943S58.526,21.152,58.005,21.152"/>
		<g>
			<defs>
				<path id="SVGID_141_" d="M55.783,96.254c0,1.227,0.996,2.223,2.222,2.223c1.229,0,2.223-0.996,2.223-2.223
					c0-1.228-0.994-2.223-2.223-2.223C56.779,94.031,55.783,95.026,55.783,96.254"/>
			</defs>
			<clipPath id="SVGID_17_">
				<use xlink:href="#SVGID_141_"  overflow="visible"/>
			</clipPath>
			
				<linearGradient id="SVGID_19_" gradientUnits="userSpaceOnUse" x1="-2690.7373" y1="262.2119" x2="-2690.335" y2="262.2119" gradientTransform="matrix(11.0421 0 0 -11.0421 29767.1738 2991.6233)">
				<stop  offset="0" style="stop-color:#008985"/>
				<stop  offset="1" style="stop-color:#015A60"/>
			</linearGradient>
			<rect x="55.783" y="94.031" clip-path="url(#SVGID_17_)" fill="url(#SVGID_19_)" width="4.444" height="4.445"/>
		</g>
		<path fill="#FFFFFF" d="M58.005,95.109c-0.632,0-1.145,0.512-1.145,1.145s0.513,1.145,1.145,1.145
			c0.633,0,1.145-0.512,1.145-1.145S58.638,95.109,58.005,95.109 M58.005,97.197c-0.521,0-0.942-0.422-0.942-0.943
			s0.421-0.944,0.942-0.944s0.943,0.423,0.943,0.944S58.526,97.197,58.005,97.197"/>
		<g>
			<defs>
				<path id="SVGID_144_" d="M76.938,23.156c0,0.76,0.617,1.375,1.377,1.375c0.761,0,1.377-0.615,1.377-1.375
					c0-0.762-0.616-1.377-1.377-1.377C77.556,21.779,76.938,22.395,76.938,23.156"/>
			</defs>
			<clipPath id="SVGID_20_">
				<use xlink:href="#SVGID_144_"  overflow="visible"/>
			</clipPath>
			
				<linearGradient id="SVGID_22_" gradientUnits="userSpaceOnUse" x1="-2538.5635" y1="243.3184" x2="-2538.1602" y2="243.3184" gradientTransform="matrix(6.839 0 0 -6.839 17438.1758 1687.2054)">
				<stop  offset="0" style="stop-color:#008985"/>
				<stop  offset="1" style="stop-color:#015A60"/>
			</linearGradient>
			<rect x="76.938" y="21.779" clip-path="url(#SVGID_20_)" fill="url(#SVGID_22_)" width="2.754" height="2.752"/>
		</g>
		<path fill="#FFFFFF" d="M78.315,22.446c-0.392,0-0.709,0.317-0.709,0.71c0,0.391,0.317,0.709,0.709,0.709s0.709-0.318,0.709-0.709
			C79.024,22.764,78.707,22.446,78.315,22.446 M78.315,23.74c-0.322,0-0.584-0.262-0.584-0.584c0-0.324,0.262-0.585,0.584-0.585
			c0.323,0,0.584,0.261,0.584,0.585C78.899,23.479,78.639,23.74,78.315,23.74"/>
		<g>
			<defs>
				<path id="SVGID_147_" d="M77.899,85.623c0,0.76,0.616,1.375,1.377,1.375c0.76,0,1.377-0.615,1.377-1.375
					c0-0.762-0.617-1.377-1.377-1.377C78.516,84.246,77.899,84.861,77.899,85.623"/>
			</defs>
			<clipPath id="SVGID_23_">
				<use xlink:href="#SVGID_147_"  overflow="visible"/>
			</clipPath>
			
				<linearGradient id="SVGID_25_" gradientUnits="userSpaceOnUse" x1="-2538.7715" y1="256.877" x2="-2538.3691" y2="256.877" gradientTransform="matrix(6.839 0 0 -6.839 17440.5625 1842.3969)">
				<stop  offset="0" style="stop-color:#008985"/>
				<stop  offset="1" style="stop-color:#015A60"/>
			</linearGradient>
			<rect x="77.899" y="84.246" clip-path="url(#SVGID_23_)" fill="url(#SVGID_25_)" width="2.754" height="2.752"/>
		</g>
		<path fill="#FFFFFF" d="M79.276,84.914c-0.393,0-0.709,0.316-0.709,0.709c0,0.391,0.316,0.709,0.709,0.709
			c0.392,0,0.709-0.318,0.709-0.709C79.985,85.23,79.668,84.914,79.276,84.914 M79.276,86.207c-0.323,0-0.584-0.262-0.584-0.584
			c0-0.323,0.261-0.584,0.584-0.584s0.584,0.261,0.584,0.584C79.86,85.945,79.6,86.207,79.276,86.207"/>
		<g>
			<defs>
				<path id="SVGID_150_" d="M35.513,85.623c0,0.76,0.616,1.375,1.376,1.375c0.761,0,1.376-0.615,1.376-1.375
					c0-0.762-0.615-1.377-1.376-1.377C36.129,84.246,35.513,84.861,35.513,85.623"/>
			</defs>
			<clipPath id="SVGID_26_">
				<use xlink:href="#SVGID_150_"  overflow="visible"/>
			</clipPath>
			
				<linearGradient id="SVGID_28_" gradientUnits="userSpaceOnUse" x1="-2529.5713" y1="256.877" x2="-2529.1689" y2="256.877" gradientTransform="matrix(6.839 0 0 -6.839 17335.2539 1842.3969)">
				<stop  offset="0" style="stop-color:#008985"/>
				<stop  offset="1" style="stop-color:#015A60"/>
			</linearGradient>
			<rect x="35.513" y="84.246" clip-path="url(#SVGID_26_)" fill="url(#SVGID_28_)" width="2.752" height="2.752"/>
		</g>
		<path fill="#FFFFFF" d="M36.889,84.914c-0.392,0-0.709,0.316-0.709,0.709c0,0.391,0.317,0.709,0.709,0.709s0.71-0.318,0.71-0.709
			C37.599,85.23,37.28,84.914,36.889,84.914 M36.889,86.207c-0.322,0-0.585-0.262-0.585-0.584c0-0.323,0.263-0.584,0.585-0.584
			c0.323,0,0.585,0.261,0.585,0.584C37.474,85.945,37.212,86.207,36.889,86.207"/>
		<linearGradient id="SVGID_29_" gradientUnits="userSpaceOnUse" x1="75.208" y1="37.999" x2="40.593" y2="74.0228">
			<stop  offset="0" style="stop-color:#008985"/>
			<stop  offset="1" style="stop-color:#015A60"/>
		</linearGradient>
		<path fill="url(#SVGID_29_)" d="M83.272,56.088c0,14.055-11.393,25.447-25.445,25.447c-14.055,0-25.447-11.393-25.447-25.447
			c0-14.053,11.393-25.445,25.447-25.445C71.88,30.643,83.272,42.035,83.272,56.088"/>
		<path fill="none" d="M32.38,55.449c0,14.055,11.393,25.447,25.447,25.447c14.053,0,25.445-11.393,25.445-25.447
			c0-14.053-11.393-25.447-25.445-25.447C43.772,30.002,32.38,41.396,32.38,55.449"/>
		<path fill="#FFFFFF" d="M66.884,74.912c0.471-1.16,0.643-7.299-0.121-13.154c-0.465-3.58-1.057-6.861-1.498-9.1
			c0.121-0.035,0.238-0.08,0.351-0.133l1.097,2.289c0,0,2.097,1.826,2.243,1.631c0.145-0.195-1.659-1.771-1.853-1.917
			c-0.038-0.108-0.244-0.728-0.461-1.38l0.568,0.646c0,0,3.277,0.886,3.355,0.654c0.075-0.229-2.848-1.053-3.059-1.123
			c-0.137-0.158-0.343-0.69-0.727-1.359l1.804,0.703c0,0,3.017-0.322,2.97-0.562c-0.047-0.236-2.48,0.049-2.781,0.109
			c-0.136-0.088-0.96-0.623-1.786-1.162c0.269-0.713,0.243-1.543-0.058-2.328c1.148,0.538,2.338,0.496,3.05-0.216
			c0.228-0.226,0.382-0.501,0.477-0.806c0.212-0.035,0.407-0.133,0.565-0.289c0.423-0.424,0.41-1.119-0.029-1.555
			c-0.212-0.215-0.488-0.325-0.763-0.336c0.708-0.344,1.667-0.75,1.976-0.723c0.701,0.068,1.943,0.881,1.954,0.889
			c0.081,0.053,0.188,0.029,0.241-0.049c0.053-0.082,0.032-0.188-0.05-0.242c-0.054-0.037-1.325-0.868-2.113-0.943
			c-0.452-0.04-1.587,0.475-2.166,0.758c-0.216-0.396-0.505-0.781-0.856-1.135s-0.737-0.638-1.135-0.854
			c0.283-0.58,0.799-1.715,0.76-2.168c-0.073-0.787-0.909-2.061-0.945-2.113c-0.051-0.082-0.159-0.104-0.243-0.051
			c-0.08,0.053-0.103,0.16-0.049,0.242c0.011,0.01,0.823,1.253,0.89,1.953c0.027,0.311-0.378,1.268-0.721,1.977
			c-0.012-0.277-0.121-0.551-0.336-0.766c-0.437-0.434-1.133-0.448-1.555-0.025c-0.156,0.158-0.254,0.354-0.291,0.562
			c-0.305,0.093-0.578,0.252-0.805,0.477c-0.713,0.713-0.751,1.905-0.215,3.05c-0.787-0.302-1.615-0.323-2.33-0.056
			c-0.537-0.826-1.072-1.652-1.161-1.783c0.063-0.307,0.346-2.736,0.107-2.785c-0.237-0.047-0.56,2.974-0.56,2.974l0.701,1.802
			c-0.668-0.385-1.2-0.592-1.359-0.727c-0.068-0.211-0.893-3.133-1.126-3.059c-0.228,0.078,0.657,3.355,0.657,3.355l0.645,0.566
			c-0.648-0.215-1.268-0.424-1.374-0.459c-0.149-0.197-1.725-1.998-1.919-1.852c-0.197,0.145,1.632,2.242,1.632,2.242l2.285,1.094
			c-0.05,0.115-0.095,0.23-0.132,0.35c-2.234-0.438-5.52-1.027-9.1-1.492c-5.855-0.768-11.99-0.593-13.151-0.125
			c-1.159,0.469,5.395,4.199,7.155,4.662c3.385,0.896,4.816,0.705,5.276,0.65c1.396-0.162,2.093-1.517,3.98-1.602
			c0.584-0.025,3.502-0.318,5.775-0.554c0.116,0.579,0.376,1.157,0.784,1.671c-2.07-1.543-4.549,0.727-7.847,4.027
			c-3.503,3.5-6.754,11.271-6.754,11.271s7.772-3.248,11.274-6.752c3.299-3.295,5.568-5.775,4.026-7.844
			c0.513,0.406,1.091,0.666,1.67,0.781c-0.235,2.277-0.529,5.191-0.553,5.775c-0.083,1.889-1.437,2.588-1.604,3.984
			c-0.053,0.457-0.245,1.887,0.653,5.273C62.69,69.514,66.415,76.07,66.884,74.912"/>
	</g>
	<g>
		<g>
			<g>
				<path fill="#414141" d="M123.644,69.709c0.438,1.64,0.146,2.041-1.566,2.041h-0.691c-1.712,0-2.221-0.401-2.659-2.041
					l-0.947-3.715h-9.618l-0.948,3.715c-0.437,1.64-0.946,2.041-2.659,2.041h-0.691c-1.713,0-2.005-0.401-1.566-2.041l4.08-15.082
					c0.728-2.732,1.129-3.861,2.113-5.174c0.982-1.312,2.295-1.749,4.479-1.749c2.188,0,3.499,0.437,4.482,1.749
					c0.986,1.312,1.384,2.441,2.113,5.174L123.644,69.709z M109.291,61.621h7.323l-1.75-6.775c-0.327-1.203-0.582-1.932-0.766-2.258
					c-0.182-0.329-0.584-0.511-1.131-0.511c-0.543,0-0.945,0.182-1.127,0.511c-0.184,0.326-0.438,1.055-0.766,2.258L109.291,61.621z
					"/>
				<path fill="#414141" d="M134.473,53.691c4.087,0,6.142,2.027,6.142,6.057c0,4.027-2.055,6.027-6.142,6.027h-4.167v4.363
					c0,1.25-0.305,1.611-1.611,1.611h-0.5c-1.306,0-1.61-0.361-1.61-1.611V57.025c0-2.334,0.999-3.334,3.333-3.334H134.473z
					 M131.14,57.164c-0.557,0-0.834,0.277-0.834,0.833v4.306h4.167c1.751,0,2.419-0.805,2.419-2.555
					c0-1.751-0.668-2.584-2.419-2.584H131.14z"/>
				<path fill="#414141" d="M151.448,53.691c4.085,0,6.141,2.027,6.141,6.057c0,4.027-2.056,6.027-6.141,6.027h-4.166v4.363
					c0,1.25-0.307,1.611-1.612,1.611h-0.501c-1.306,0-1.611-0.361-1.611-1.611V57.025c0-2.334,1-3.334,3.334-3.334H151.448z
					 M148.114,57.164c-0.556,0-0.832,0.277-0.832,0.833v4.306h4.166c1.752,0,2.418-0.805,2.418-2.555
					c0-1.751-0.666-2.584-2.418-2.584H148.114z"/>
				<path fill="#414141" d="M159.965,68.615c0-1.711,0.474-2.149,2.113-1.711c1.857,0.475,3.679,0.729,5.536,0.729
					c2.915,0,3.971-0.51,3.971-1.967c0-1.057-0.582-1.641-2.912-2.988l-4.665-2.732c-2.44-1.42-3.679-3.461-3.679-6.121
					c0-4.078,2.55-6.12,8.488-6.12c1.639,0,3.17,0.183,4.554,0.583c1.749,0.475,2.149,0.912,2.149,2.551v0.365
					c0,1.748-0.436,2.111-2.149,1.639c-1.275-0.4-2.769-0.583-4.554-0.583c-2.477,0-3.461,0.401-3.461,1.712
					c0,0.875,0.438,1.348,2.004,2.26l4.846,2.842c3.061,1.785,4.408,3.498,4.408,6.594c0,4.262-2.66,6.521-9.072,6.521
					c-2.004,0-3.861-0.221-5.5-0.693c-1.713-0.473-2.077-0.873-2.077-2.514V68.615z"/>
				<path fill="#414141" d="M183.603,64.248v3.195c0,0.555,0.279,0.834,0.834,0.834h6.75c1.251,0,1.612,0.305,1.612,1.611v0.25
					c0,1.25-0.361,1.611-1.612,1.611h-7.972c-2.335,0-3.335-1.002-3.335-3.334V57.025c0-2.334,1-3.334,3.335-3.334h7.972
					c1.251,0,1.612,0.361,1.612,1.609v0.25c0,1.307-0.361,1.613-1.612,1.613h-6.75c-0.555,0-0.834,0.277-0.834,0.833v2.778h6.473
					c1.251,0,1.613,0.305,1.613,1.612v0.249c0,1.25-0.362,1.611-1.613,1.611H183.603z"/>
				<path fill="#414141" d="M199.356,65.109c0,2.194,1,3.502,4.194,3.502c0.999,0,2-0.141,3-0.418
					c1.222-0.332,1.556-0.055,1.556,1.25v0.223c0,1.25-0.305,1.557-1.529,2c-0.805,0.279-1.858,0.418-3.191,0.418
					c-5.224,0-7.863-2.084-7.863-6.975v-4.445c0-4.557,2.64-7.25,7.89-7.25c1.307,0,2.333,0.166,3.139,0.471
					c1.251,0.473,1.556,0.779,1.556,2.002v0.221c0,1.307-0.389,1.611-1.611,1.252c-1.027-0.307-2.055-0.473-3.083-0.473
					c-2.862,0-4.056,1.195-4.056,3.777V65.109z"/>
				<path fill="#414141" d="M216.894,55.221c0-1.254,0.308-1.617,1.62-1.617h0.503c1.312,0,1.619,0.363,1.619,1.617v10.162
					c0,2.15,1.201,3.211,3.601,3.211c2.374,0,3.573-1.061,3.573-3.211V55.221c0-1.254,0.365-1.617,1.619-1.617h0.504
					c1.256,0,1.619,0.363,1.619,1.617v10.162c0,4.607-2.82,6.703-7.315,6.703c-4.55,0-7.343-2.096-7.343-6.703V55.221z"/>
				<path fill="#414141" d="M234.234,69.35c0-1.312,0.364-1.648,1.62-1.312c1.424,0.363,2.82,0.557,4.244,0.557
					c2.232,0,3.043-0.389,3.043-1.506c0-0.809-0.447-1.256-2.235-2.291l-3.573-2.094c-1.869-1.088-2.818-2.65-2.818-4.689
					c0-3.127,1.955-4.689,6.506-4.689c1.256,0,2.428,0.139,3.488,0.446c1.341,0.362,1.646,0.696,1.646,1.954v0.279
					c0,1.34-0.334,1.619-1.646,1.256c-0.979-0.309-2.121-0.445-3.488-0.445c-1.9,0-2.653,0.307-2.653,1.311
					c0,0.67,0.335,1.035,1.536,1.731l3.712,2.179c2.345,1.367,3.378,2.68,3.378,5.053c0,3.266-2.038,4.998-6.951,4.998
					c-1.535,0-2.96-0.168-4.217-0.531c-1.311-0.363-1.591-0.67-1.591-1.926V69.35z"/>
				<path fill="#414141" d="M265.616,70.186c0.337,1.258,0.113,1.564-1.199,1.564h-0.53c-1.312,0-1.703-0.307-2.038-1.564
					l-0.725-2.848h-7.371l-0.726,2.848c-0.336,1.258-0.726,1.564-2.038,1.564h-0.53c-1.313,0-1.536-0.307-1.201-1.564l3.126-11.557
					c0.56-2.094,0.864-2.961,1.621-3.965c0.752-1.004,1.758-1.34,3.432-1.34c1.677,0,2.682,0.336,3.436,1.34
					s1.061,1.871,1.619,3.965L265.616,70.186z M254.618,63.988h5.611l-1.34-5.193c-0.251-0.92-0.447-1.479-0.586-1.73
					c-0.141-0.25-0.446-0.389-0.867-0.389c-0.417,0-0.725,0.139-0.863,0.389c-0.141,0.252-0.336,0.811-0.586,1.73L254.618,63.988z"
					/>
			</g>
			<linearGradient id="SVGID_30_" gradientUnits="userSpaceOnUse" x1="184.5068" y1="47.4731" x2="183.8666" y2="71.8017">
				<stop  offset="0" style="stop-color:#FFFFFF"/>
				<stop  offset="1" style="stop-color:#D0D1D2"/>
			</linearGradient>
			<path fill="url(#SVGID_30_)" d="M130.306,56.321c0-0.556,0.277-0.833,0.834-0.833h3.333c1.751,0,2.419,0.833,2.419,2.584
				c0,1.75-0.668,2.555-2.419,2.555h-4.167V56.321z M129.917,52.014c-2.333,0-3.333,1-3.333,3.334v13.115
				c0,1.25,0.306,1.611,1.611,1.611h0.499c1.307,0,1.611-0.361,1.611-1.611v-4.362h4.167c4.085,0,6.142-2.001,6.142-6.028
				c0-4.029-2.057-6.059-6.142-6.059H129.917z M147.28,56.321c0-0.556,0.278-0.833,0.834-0.833h3.334
				c1.752,0,2.418,0.833,2.418,2.584c0,1.75-0.666,2.555-2.418,2.555h-4.168V56.321z M146.892,52.014c-2.334,0-3.332,1-3.332,3.334
				v13.115c0,1.25,0.304,1.611,1.609,1.611h0.502c1.305,0,1.609-0.361,1.609-1.611v-4.362h4.168c4.085,0,6.141-2.001,6.141-6.028
				c0-4.029-2.056-6.059-6.141-6.059H146.892z M183.214,52.014c-2.334,0-3.333,1-3.333,3.334V66.74c0,2.334,0.999,3.334,3.333,3.334
				h7.973c1.251,0,1.612-0.361,1.612-1.611v-0.25c0-1.307-0.361-1.612-1.612-1.612h-6.75c-0.557,0-0.832-0.276-0.832-0.832v-3.195
				h6.471c1.251,0,1.613-0.36,1.613-1.612v-0.25c0-1.307-0.362-1.611-1.613-1.611h-6.471v-2.778c0-0.556,0.275-0.833,0.832-0.833
				h6.75c1.251,0,1.612-0.307,1.612-1.611v-0.252c0-1.25-0.361-1.611-1.612-1.611H183.214z M229.429,51.928
				c-1.256,0-1.619,0.361-1.619,1.617v10.164c0,2.148-1.199,3.211-3.573,3.211c-2.399,0-3.601-1.062-3.601-3.211V53.545
				c0-1.256-0.308-1.617-1.619-1.617h-0.503c-1.312,0-1.62,0.361-1.62,1.617v10.164c0,4.605,2.793,6.701,7.343,6.701
				c4.495,0,7.315-2.096,7.315-6.701V53.545c0-1.256-0.363-1.617-1.619-1.617H229.429z M195.522,58.988v4.445
				c0,4.891,2.64,6.975,7.861,6.975c1.334,0,2.389-0.141,3.195-0.418c1.223-0.443,1.527-0.752,1.527-2v-0.225
				c0-1.304-0.334-1.58-1.556-1.248c-1,0.277-2.001,0.416-3,0.416c-3.194,0-4.194-1.305-4.194-3.5v-4.445
				c0-2.584,1.193-3.777,4.056-3.777c1.028,0,2.056,0.166,3.083,0.471c1.223,0.361,1.611,0.055,1.611-1.25v-0.223
				c0-1.221-0.305-1.527-1.556-2c-0.806-0.306-1.833-0.473-3.139-0.473C198.162,51.736,195.522,54.432,195.522,58.988
				 M234.515,56.338c0,2.037,0.949,3.602,2.818,4.691l3.575,2.092c1.787,1.033,2.233,1.48,2.233,2.291
				c0,1.115-0.811,1.508-3.043,1.508c-1.426,0-2.82-0.197-4.244-0.559c-1.256-0.336-1.62,0-1.62,1.311v0.281
				c0,1.256,0.28,1.562,1.591,1.926c1.257,0.363,2.683,0.531,4.217,0.531c4.913,0,6.951-1.732,6.951-4.998
				c0-2.373-1.033-3.686-3.378-5.055l-3.714-2.178c-1.199-0.697-1.534-1.059-1.534-1.73c0-1.004,0.754-1.312,2.653-1.312
				c1.367,0,2.512,0.141,3.488,0.447c1.312,0.363,1.646,0.084,1.646-1.256v-0.279c0-1.256-0.308-1.59-1.646-1.955
				c-1.062-0.309-2.232-0.445-3.488-0.445C236.468,51.648,234.515,53.211,234.515,56.338 M255.985,57.121
				c0.252-0.922,0.447-1.48,0.586-1.732c0.141-0.252,0.448-0.391,0.867-0.391s0.725,0.139,0.865,0.391
				c0.14,0.252,0.335,0.811,0.585,1.732l1.341,5.191h-5.611L255.985,57.121z M254.004,52.988c-0.754,1.006-1.061,1.871-1.62,3.963
				l-3.126,11.561c-0.335,1.254-0.112,1.562,1.201,1.562h0.53c1.311,0,1.702-0.309,2.038-1.562l0.727-2.85h7.37l0.725,2.85
				c0.335,1.254,0.727,1.562,2.038,1.562h0.53c1.312,0,1.536-0.309,1.199-1.562l-3.125-11.561c-0.559-2.092-0.865-2.957-1.619-3.963
				s-1.759-1.34-3.434-1.34C255.763,51.648,254.757,51.982,254.004,52.988 M111.075,53.17c0.328-1.201,0.582-1.932,0.766-2.26
				c0.182-0.328,0.584-0.51,1.127-0.51c0.547,0,0.949,0.182,1.131,0.51c0.184,0.328,0.438,1.059,0.766,2.26l1.75,6.775h-7.323
				L111.075,53.17z M108.489,47.777c-0.982,1.312-1.386,2.44-2.112,5.174l-4.081,15.082c-0.438,1.639-0.146,2.041,1.564,2.041h0.693
				c1.713,0,2.223-0.402,2.659-2.041l0.948-3.715h9.618l0.948,3.715c0.438,1.639,0.946,2.041,2.658,2.041h0.692
				c1.712,0,2.003-0.402,1.565-2.041l-4.08-15.082c-0.729-2.733-1.127-3.861-2.111-5.174c-0.985-1.312-2.296-1.748-4.484-1.748
				C110.784,46.029,109.472,46.465,108.489,47.777 M160.329,52.15c0,2.658,1.238,4.699,3.679,6.119l4.665,2.732
				c2.33,1.346,2.912,1.932,2.912,2.988c0,1.457-1.055,1.967-3.971,1.967c-1.857,0-3.679-0.256-5.536-0.729
				c-1.64-0.438-2.113,0-2.113,1.711v0.365c0,1.639,0.364,2.039,2.077,2.514c1.639,0.473,3.496,0.692,5.5,0.692
				c6.412,0,9.072-2.259,9.072-6.521c0-3.098-1.348-4.811-4.408-6.596l-4.846-2.842c-1.565-0.91-2.004-1.383-2.004-2.258
				c0-1.312,0.984-1.713,3.461-1.713c1.785,0,3.278,0.184,4.554,0.584c1.714,0.473,2.149,0.109,2.149-1.64V49.16
				c0-1.638-0.4-2.076-2.149-2.549c-1.384-0.4-2.915-0.582-4.554-0.582C162.879,46.029,160.329,48.068,160.329,52.15"/>
		</g>
		<g>
			<g>
				<path fill="#414141" d="M272.47,68.512c0-1.27,0.361-1.633,1.488-1.234c1.852,0.582,3.812,0.872,5.882,0.872
					c3.304,0,4.683-0.655,4.683-2.541c0-0.726-0.217-1.308-0.652-1.743c-0.436-0.473-1.271-1.053-2.469-1.779l-5.012-3.014
					c-2.432-1.453-3.63-3.412-3.63-5.918c0-3.885,2.542-5.738,8.024-5.738c1.925,0,3.595,0.254,5.047,0.727
					c1.271,0.4,1.561,0.654,1.561,1.816v0.617c0,1.27-0.253,1.525-1.451,1.197c-1.525-0.508-3.231-0.762-5.156-0.762
					c-2.904,0-4.104,0.617-4.104,2.251c0,1.198,0.581,1.815,2.287,2.831l5.158,3.16c2.904,1.742,4.32,3.305,4.32,6.354
					c0,4.103-2.725,6.138-8.68,6.138c-2.214,0-4.174-0.293-5.845-0.836c-1.198-0.4-1.452-0.619-1.452-1.816V68.512z"/>
				<path fill="#414141" d="M307.073,65.935c0,4.03-2.361,5.81-7.734,5.81c-4.902,0-7.371-1.852-7.371-5.592
					c0-3.887,2.613-5.482,7.406-5.482h3.994v-1.779c0-2.143-1.416-2.76-4.283-2.76c-1.453,0-2.725,0.109-3.812,0.327
					c-1.053,0.182-1.344-0.036-1.344-1.161v-0.51c0-1.053,0.291-1.379,1.308-1.561c1.124-0.184,2.323-0.291,3.63-0.291
					c5.266,0,8.207,1.633,8.207,5.955V65.935z M303.368,63.502h-3.994c-2.504,0-3.667,0.725-3.667,2.576
					c0,1.924,1.38,2.508,3.56,2.508c2.724,0,4.102-0.547,4.102-2.834V63.502z"/>
				<path fill="#414141" d="M410.429,75.561c-0.367-0.086-0.424-0.197-0.508-0.564c-0.029-0.227-0.057-0.734-0.057-1.496
					c0-3.865,0.732-5.781,2.229-5.781c0.932,0,1.523,0.705,1.523,1.832c0,0.678-0.283,1.609-0.818,2.766s-1.044,2.143-1.551,2.961
					c-0.17,0.283-0.395,0.396-0.705,0.311L410.429,75.561z M420.528,64.812c0,2.227,1.014,3.553,4.258,3.553
					c1.016,0,2.032-0.141,3.047-0.422c1.241-0.34,1.579-0.057,1.579,1.27v0.225c0,1.271-0.31,1.582-1.55,2.033
					c-0.818,0.281-1.891,0.422-3.246,0.422c-5.303,0-7.981-2.115-7.981-7.08v-4.514c0-4.627,2.679-7.363,8.011-7.363
					c1.326,0,2.37,0.17,3.188,0.48c1.27,0.479,1.579,0.789,1.579,2.031v0.225c0,1.325-0.394,1.637-1.636,1.27
					c-1.043-0.311-2.087-0.479-3.131-0.479c-2.906,0-4.117,1.212-4.117,3.836V64.812z M448.115,69.975l-3.16-11.678
					c-0.564-2.117-0.874-2.992-1.636-4.008s-1.777-1.354-3.469-1.354c-1.695,0-2.709,0.338-3.471,1.354
					c-0.764,1.016-1.072,1.891-1.637,4.008l-3.16,11.678c-0.338,1.27-0.112,1.578,1.214,1.578h0.536c1.326,0,1.721-0.309,2.06-1.578
					l0.733-2.877h7.448l0.732,2.877c0.338,1.27,0.733,1.578,2.06,1.578h0.535C448.228,71.553,448.453,71.244,448.115,69.975z
					 M436.999,63.713l1.385-5.25c0.252-0.93,0.449-1.493,0.591-1.748c0.141-0.252,0.452-0.394,0.876-0.394
					c0.422,0,0.732,0.142,0.873,0.394c0.142,0.255,0.339,0.818,0.594,1.748l1.354,5.25H436.999z M315.278,59.979
					c0-2.467,0.946-3.557,4.176-3.557c3.232,0,4.14,1.09,4.14,3.557v9.732c0,1.307,0.327,1.634,1.634,1.634h0.473
					c1.307,0,1.633-0.327,1.633-1.634v-9.732c0-4.682-2.359-7.043-7.879-7.043c-5.264,0-7.914,2.361-7.914,7.043v9.732
					c0,1.307,0.326,1.634,1.634,1.634h0.472c1.308,0,1.633-0.327,1.633-1.634V59.979z M346.869,49.414
					c0-1.346-0.327-1.67-1.671-1.67h-0.472c-1.345,0-1.671,0.324-1.671,1.67v16.521c0,3.993-1.016,6.899-3.014,8.714
					c-0.763,0.727-0.872,1.162-0.182,2.215l0.254,0.363c0.619,0.906,1.271,1.09,1.963,0.508c1.523-1.307,2.686-2.869,3.521-4.684
					c0.834-1.779,1.271-4.247,1.271-7.371V49.414z M351.735,63.902v-3.123c0-5.084,2.723-7.844,8.352-7.844
					c5.771,0,8.277,2.615,8.277,7.844v3.123c0,5.045-2.723,7.844-8.277,7.844C354.275,71.746,351.735,69.13,351.735,63.902
					 M364.624,60.779c0-3.051-1.017-4.357-4.537-4.357c-3.523,0-4.613,1.307-4.613,4.357v3.123c0,3.014,1.018,4.32,4.613,4.32
					c3.521,0,4.537-1.27,4.537-4.32V60.779z M372.323,69.348c0,1.199,0.254,1.451,1.451,1.779c1.525,0.4,3.195,0.619,4.975,0.619
					c5.119,0,7.334-1.6,7.334-5.084c0-2.727-1.233-3.996-3.884-5.121l-4.212-1.814c-1.271-0.582-1.707-0.98-1.707-1.852
					c0-1.053,0.835-1.488,3.195-1.488c1.488,0,2.94,0.182,4.32,0.58c1.162,0.326,1.489,0.035,1.489-1.236v-0.434
					c0-1.199-0.255-1.418-1.524-1.816c-1.309-0.363-2.724-0.545-4.214-0.545c-4.827,0-6.934,1.561-6.934,4.939
					c0,2.65,1.124,3.885,3.594,4.938l3.923,1.742c1.852,0.836,2.322,1.271,2.322,2.18c0,1.16-0.908,1.561-3.376,1.561
					c-1.78,0-3.522-0.219-5.302-0.691c-1.161-0.289-1.451,0-1.451,1.273V69.348z M405.872,62.049
					c-0.145,1.344-0.506,1.672-1.852,1.672h-10.092v0.799c0,2.65,1.523,3.703,5.191,3.703c1.487,0,3.049-0.184,4.719-0.582
					c1.162-0.289,1.489,0,1.489,1.27v0.473c0,1.199-0.218,1.453-1.489,1.779c-1.452,0.402-3.014,0.584-4.719,0.584
					c-6.101,0-8.933-2.289-8.933-7.773v-3.156c0-5.266,2.687-7.881,8.06-7.881c5.047,0,7.698,2.578,7.698,7.518
					C405.945,60.996,405.909,61.506,405.872,62.049 M393.929,60.67h8.494v-0.908c0-2.396-1.415-3.596-4.283-3.596
					c-2.798,0-4.211,1.199-4.211,3.596V60.67z"/>
			</g>
			<linearGradient id="SVGID_31_" gradientUnits="userSpaceOnUse" x1="359.4619" y1="77.5039" x2="361.2843" y2="47.8907">
				<stop  offset="0" style="stop-color:#FFFFFF"/>
				<stop  offset="1" style="stop-color:#D0D1D2"/>
			</linearGradient>
			<path fill="url(#SVGID_31_)" d="M410.429,74.237c-0.367-0.083-0.424-0.196-0.508-0.563c-0.029-0.227-0.057-0.734-0.057-1.495
				c0-3.864,0.732-5.782,2.229-5.782c0.932,0,1.523,0.705,1.523,1.832c0,0.676-0.283,1.607-0.818,2.765s-1.044,2.144-1.551,2.962
				c-0.17,0.282-0.395,0.395-0.705,0.311L410.429,74.237z M420.528,63.488c0,2.23,1.014,3.557,4.258,3.557
				c1.016,0,2.032-0.141,3.047-0.424c1.241-0.338,1.579-0.057,1.579,1.268v0.227c0,1.27-0.31,1.58-1.55,2.032
				c-0.818,0.28-1.891,0.423-3.246,0.423c-5.303,0-7.981-2.115-7.981-7.082v-4.512c0-4.627,2.679-7.363,8.011-7.363
				c1.326,0,2.37,0.168,3.188,0.479c1.27,0.479,1.579,0.788,1.579,2.03v0.227c0,1.326-0.394,1.635-1.636,1.27
				c-1.043-0.311-2.087-0.479-3.131-0.479c-2.906,0-4.117,1.214-4.117,3.837V63.488z M448.115,68.652
				c0.338,1.27,0.112,1.58-1.214,1.58h-0.535c-1.326,0-1.722-0.311-2.06-1.58l-0.732-2.877h-7.448l-0.733,2.877
				c-0.339,1.27-0.733,1.58-2.06,1.58h-0.536c-1.326,0-1.552-0.311-1.214-1.58l3.16-11.68c0.564-2.115,0.873-2.99,1.637-4.006
				c0.762-1.014,1.775-1.354,3.471-1.354c1.691,0,2.707,0.34,3.469,1.354c0.762,1.016,1.071,1.891,1.636,4.006L448.115,68.652z
				 M436.999,62.391h5.672l-1.354-5.248c-0.255-0.932-0.452-1.494-0.594-1.75c-0.141-0.253-0.451-0.395-0.873-0.395
				c-0.424,0-0.735,0.142-0.876,0.395c-0.142,0.256-0.339,0.818-0.591,1.75L436.999,62.391z M295.707,64.676
				c0-1.852,1.163-2.578,3.667-2.578h3.996v2.25c0,2.289-1.381,2.834-4.104,2.834C297.087,67.182,295.707,66.601,295.707,64.676
				 M295.236,51.824c-1.017,0.178-1.308,0.506-1.308,1.561v0.508c0,1.125,0.291,1.344,1.344,1.162
				c1.088-0.219,2.359-0.328,3.812-0.328c2.867,0,4.285,0.619,4.285,2.76v1.781h-3.996c-4.791,0-7.406,1.596-7.406,5.48
				c0,3.74,2.469,5.591,7.371,5.591c5.373,0,7.734-1.778,7.734-5.81v-7.043c0-4.32-2.941-5.955-8.207-5.955
				C297.56,51.531,296.36,51.643,295.236,51.824 M311.54,58.576v9.73c0,1.307,0.326,1.635,1.634,1.635h0.472
				c1.307,0,1.633-0.328,1.633-1.635v-9.73c0-2.469,0.946-3.559,4.176-3.559c3.232,0,4.139,1.09,4.139,3.559v9.73
				c0,1.307,0.328,1.635,1.635,1.635h0.473c1.307,0,1.633-0.328,1.633-1.635v-9.73c0-4.684-2.359-7.045-7.879-7.045
				C314.19,51.531,311.54,53.893,311.54,58.576 M355.474,62.498v-3.123c0-3.05,1.09-4.357,4.613-4.357
				c3.521,0,4.537,1.308,4.537,4.357v3.123c0,3.049-1.017,4.32-4.537,4.32C356.491,66.818,355.474,65.512,355.474,62.498
				 M351.735,59.375v3.123c0,5.229,2.54,7.841,8.352,7.841c5.555,0,8.277-2.794,8.277-7.841v-3.123c0-5.229-2.506-7.844-8.277-7.844
				C354.458,51.531,351.735,54.291,351.735,59.375 M372.613,56.471c0,2.65,1.124,3.885,3.594,4.938l3.923,1.742
				c1.852,0.836,2.322,1.271,2.322,2.18c0,1.162-0.906,1.561-3.376,1.561c-1.78,0-3.521-0.217-5.302-0.689
				c-1.161-0.291-1.451,0-1.451,1.271v0.472c0,1.197,0.254,1.453,1.451,1.779c1.525,0.398,3.195,0.616,4.975,0.616
				c5.119,0,7.335-1.597,7.335-5.081c0-2.723-1.234-3.994-3.885-5.121l-4.212-1.814c-1.271-0.58-1.707-0.98-1.707-1.852
				c0-1.055,0.835-1.49,3.195-1.49c1.488,0,2.94,0.184,4.32,0.582c1.162,0.326,1.489,0.037,1.489-1.234v-0.436
				c0-1.197-0.255-1.416-1.526-1.816c-1.307-0.365-2.722-0.545-4.212-0.545C374.72,51.531,372.613,53.094,372.613,56.471
				 M393.929,58.357c0-2.396,1.413-3.594,4.211-3.594c2.867,0,4.285,1.198,4.285,3.594v0.91h-8.496V58.357z M390.188,59.41v3.16
				c0,5.482,2.832,7.769,8.933,7.769c1.705,0,3.267-0.181,4.719-0.579c1.271-0.326,1.489-0.582,1.489-1.78v-0.472
				c0-1.271-0.327-1.562-1.489-1.271c-1.67,0.4-3.231,0.582-4.719,0.582c-3.668,0-5.191-1.053-5.191-3.703v-0.799h10.092
				c1.346,0,1.707-0.328,1.852-1.672c0.037-0.543,0.073-1.051,0.073-1.596c0-4.939-2.651-7.518-7.698-7.518
				C392.874,51.531,390.188,54.146,390.188,59.41 M344.726,46.34c-1.343,0-1.67,0.326-1.67,1.671v16.519
				c0,3.996-1.016,6.898-3.014,8.715c-0.763,0.727-0.871,1.162-0.182,2.215l0.255,0.365c0.618,0.906,1.271,1.088,1.962,0.508
				c1.523-1.307,2.686-2.869,3.521-4.686c0.833-1.777,1.271-4.248,1.271-7.369V48.011c0-1.345-0.327-1.671-1.671-1.671H344.726z
				 M272.76,51.749c0,2.505,1.198,4.466,3.63,5.919l5.012,3.014c1.197,0.727,2.033,1.307,2.469,1.779
				c0.436,0.436,0.654,1.018,0.654,1.742c0,1.889-1.381,2.543-4.684,2.543c-2.07,0-4.031-0.291-5.883-0.871
				c-1.127-0.4-1.488-0.037-1.488,1.234v0.582c0,1.195,0.254,1.414,1.451,1.812c1.672,0.547,3.632,0.835,5.846,0.835
				c5.955,0,8.678-2.032,8.678-6.136c0-3.049-1.414-4.609-4.32-6.354l-5.156-3.158c-1.705-1.018-2.287-1.635-2.287-2.832
				c0-1.635,1.199-2.252,4.104-2.252c1.924,0,3.631,0.255,5.156,0.762c1.197,0.328,1.451,0.074,1.451-1.197v-0.617
				c0-1.162-0.289-1.416-1.561-1.816c-1.453-0.471-3.123-0.726-5.047-0.726C275.302,46.013,272.76,47.864,272.76,51.749"/>
		</g>
	</g>
</g>
</svg>
