<?xml version="1.0" encoding="utf-8"?>
<!-- Generator: Adobe Illustrator 16.0.0, SVG Export Plug-In . SVG Version: 6.00 Build 0)  -->
<!DOCTYPE svg PUBLIC "-//W3C//DTD SVG 1.1//EN" "http://www.w3.org/Graphics/SVG/1.1/DTD/svg11.dtd">
<svg version="1.1" id="Layer_1" xmlns="http://www.w3.org/2000/svg" xmlns:xlink="http://www.w3.org/1999/xlink" x="0px" y="0px"
	 width="447.874px" height="447.874px" viewBox="0 0 447.874 447.874" enable-background="new 0 0 447.874 447.874"
	 xml:space="preserve">
<g>
	<g>
		<g>
			<g>
				<path fill="#404041" d="M143.317,290.134c0.538,2.016,0.18,2.508-1.928,2.508h-0.85c-2.104,0-2.731-0.492-3.27-2.508
					l-1.164-4.568h-11.824l-1.166,4.568c-0.537,2.016-1.164,2.508-3.27,2.508h-0.85c-2.106,0-2.465-0.492-1.927-2.508l5.017-18.542
					c0.895-3.359,1.388-4.748,2.598-6.361c1.208-1.613,2.822-2.149,5.508-2.149c2.689,0,4.301,0.536,5.51,2.149
					c1.211,1.613,1.701,3.002,2.599,6.361L143.317,290.134z M125.671,280.19h9.003l-2.151-8.33
					c-0.402-1.479-0.716-2.374-0.941-2.776c-0.224-0.404-0.717-0.627-1.389-0.627c-0.67,0-1.164,0.223-1.388,0.627
					c-0.224,0.402-0.537,1.298-0.94,2.776L125.671,280.19z"/>
				<path fill="#404041" d="M156.63,270.441c5.023,0,7.549,2.492,7.549,7.445c0,4.952-2.525,7.411-7.549,7.411h-5.123v5.365
					c0,1.536-0.375,1.979-1.98,1.979h-0.616c-1.604,0-1.979-0.442-1.979-1.979V274.54c0-2.869,1.229-4.099,4.098-4.099H156.63z
					 M152.532,274.71c-0.684,0-1.025,0.343-1.025,1.024v5.295h5.123c2.151,0,2.973-0.989,2.973-3.143
					c0-2.152-0.821-3.177-2.973-3.177H152.532z"/>
				<path fill="#404041" d="M177.499,270.441c5.022,0,7.55,2.492,7.55,7.445c0,4.952-2.527,7.411-7.55,7.411h-5.121v5.365
					c0,1.536-0.378,1.979-1.982,1.979h-0.615c-1.605,0-1.981-0.442-1.981-1.979V274.54c0-2.869,1.229-4.099,4.099-4.099H177.499z
					 M173.401,274.71c-0.684,0-1.023,0.343-1.023,1.024v5.295h5.121c2.154,0,2.973-0.989,2.973-3.143
					c0-2.152-0.818-3.177-2.973-3.177H173.401z"/>
				<path fill="#404041" d="M187.97,288.79c0-2.105,0.582-2.643,2.598-2.105c2.284,0.584,4.524,0.897,6.807,0.897
					c3.584,0,4.883-0.627,4.883-2.419c0-1.3-0.717-2.017-3.582-3.673l-5.734-3.359c-3-1.747-4.521-4.255-4.521-7.525
					c0-5.016,3.134-7.524,10.435-7.524c2.015,0,3.897,0.225,5.599,0.717c2.15,0.581,2.643,1.121,2.643,3.135v0.449
					c0,2.148-0.536,2.597-2.643,2.014c-1.568-0.492-3.403-0.716-5.599-0.716c-3.045,0-4.255,0.493-4.255,2.104
					c0,1.076,0.538,1.657,2.464,2.778l5.957,3.494c3.763,2.195,5.42,4.3,5.42,8.106c0,5.24-3.271,8.017-11.153,8.017
					c-2.464,0-4.748-0.269-6.764-0.852c-2.104-0.581-2.553-1.073-2.553-3.09V288.79z"/>
				<path fill="#404041" d="M217.03,283.42v3.929c0,0.682,0.343,1.024,1.025,1.024h8.299c1.538,0,1.982,0.375,1.982,1.981v0.309
					c0,1.536-0.444,1.979-1.982,1.979h-9.801c-2.87,0-4.1-1.229-4.1-4.097V274.54c0-2.869,1.229-4.099,4.1-4.099h9.801
					c1.538,0,1.982,0.443,1.982,1.979v0.308c0,1.606-0.444,1.981-1.982,1.981h-8.299c-0.683,0-1.025,0.343-1.025,1.024v3.415h7.959
					c1.537,0,1.982,0.377,1.982,1.983v0.307c0,1.537-0.445,1.98-1.982,1.98H217.03z"/>
				<path fill="#404041" d="M236.398,284.479c0,2.697,1.229,4.304,5.157,4.304c1.229,0,2.458-0.172,3.688-0.513
					c1.504-0.41,1.914-0.067,1.914,1.537v0.273c0,1.536-0.376,1.913-1.88,2.459c-0.99,0.342-2.286,0.514-3.926,0.514
					c-6.421,0-9.667-2.562-9.667-8.574v-5.465c0-5.603,3.246-8.915,9.7-8.915c1.606,0,2.869,0.205,3.858,0.58
					c1.538,0.581,1.914,0.956,1.914,2.459v0.273c0,1.605-0.479,1.98-1.981,1.538c-1.264-0.377-2.527-0.582-3.791-0.582
					c-3.519,0-4.986,1.47-4.986,4.646V284.479z"/>
				<path fill="#404041" d="M257.96,272.322c0-1.543,0.378-1.989,1.991-1.989h0.617c1.613,0,1.991,0.446,1.991,1.989v12.494
					c0,2.643,1.477,3.947,4.428,3.947c2.918,0,4.393-1.305,4.393-3.947v-12.494c0-1.543,0.447-1.989,1.991-1.989h0.618
					c1.545,0,1.99,0.446,1.99,1.989v12.494c0,5.664-3.467,8.239-8.992,8.239c-5.595,0-9.027-2.575-9.027-8.239V272.322z"/>
				<path fill="#404041" d="M279.279,289.69c0-1.613,0.447-2.024,1.99-1.613c1.751,0.447,3.468,0.687,5.218,0.687
					c2.746,0,3.741-0.479,3.741-1.853c0-0.995-0.55-1.545-2.747-2.815l-4.394-2.574c-2.298-1.338-3.465-3.26-3.465-5.766
					c0-3.844,2.403-5.767,7.997-5.767c1.545,0,2.986,0.172,4.29,0.55c1.648,0.445,2.024,0.856,2.024,2.401v0.344
					c0,1.648-0.411,1.991-2.024,1.545c-1.202-0.379-2.608-0.549-4.29-0.549c-2.335,0-3.261,0.377-3.261,1.613
					c0,0.823,0.412,1.271,1.888,2.127l4.564,2.678c2.883,1.682,4.153,3.295,4.153,6.213c0,4.015-2.506,6.145-8.547,6.145
					c-1.888,0-3.638-0.207-5.183-0.653c-1.612-0.445-1.956-0.823-1.956-2.368V289.69z"/>
				<path fill="#404041" d="M317.861,290.721c0.413,1.545,0.138,1.921-1.477,1.921h-0.651c-1.612,0-2.094-0.376-2.506-1.921
					l-0.891-3.502h-9.062l-0.892,3.502c-0.413,1.545-0.892,1.921-2.506,1.921h-0.652c-1.614,0-1.888-0.376-1.476-1.921l3.844-14.21
					c0.687-2.573,1.062-3.639,1.992-4.875c0.925-1.234,2.161-1.646,4.22-1.646c2.06,0,3.295,0.412,4.223,1.646
					c0.927,1.236,1.304,2.302,1.99,4.875L317.861,290.721z M304.339,283.102h6.898l-1.646-6.385
					c-0.309-1.133-0.551-1.819-0.721-2.128c-0.173-0.309-0.549-0.479-1.065-0.479c-0.514,0-0.892,0.171-1.062,0.479
					c-0.172,0.309-0.413,0.995-0.721,2.128L304.339,283.102z"/>
			</g>
			<linearGradient id="SVGID_1_" gradientUnits="userSpaceOnUse" x1="218.1426" y1="262.7959" x2="217.3555" y2="292.705">
				<stop  offset="0" style="stop-color:#FFFFFF"/>
				<stop  offset="1" style="stop-color:#D0D2D3"/>
			</linearGradient>
			<path fill="url(#SVGID_1_)" d="M151.507,273.675c0-0.684,0.342-1.024,1.025-1.024h4.098c2.152,0,2.973,1.024,2.973,3.177
				c0,2.151-0.82,3.141-2.973,3.141h-5.123V273.675z M151.028,268.38c-2.868,0-4.098,1.229-4.098,4.099v16.123
				c0,1.537,0.376,1.98,1.981,1.98h0.614c1.605,0,1.98-0.443,1.98-1.98v-5.363h5.123c5.021,0,7.549-2.46,7.549-7.411
				c0-4.953-2.527-7.447-7.549-7.447H151.028z M172.376,273.675c0-0.684,0.342-1.024,1.025-1.024h4.098
				c2.154,0,2.973,1.024,2.973,3.177c0,2.151-0.818,3.141-2.973,3.141h-5.123V273.675z M171.897,268.38
				c-2.869,0-4.097,1.229-4.097,4.099v16.123c0,1.537,0.374,1.98,1.979,1.98h0.617c1.603,0,1.979-0.443,1.979-1.98v-5.363h5.123
				c5.022,0,7.55-2.46,7.55-7.411c0-4.953-2.527-7.447-7.55-7.447H171.897z M216.552,268.38c-2.868,0-4.097,1.229-4.097,4.099
				v14.005c0,2.869,1.229,4.099,4.097,4.099h9.803c1.538,0,1.982-0.443,1.982-1.98v-0.307c0-1.606-0.444-1.983-1.982-1.983h-8.299
				c-0.685,0-1.023-0.34-1.023-1.022v-3.929h7.957c1.537,0,1.982-0.443,1.982-1.982v-0.307c0-1.606-0.445-1.981-1.982-1.981h-7.957
				v-3.415c0-0.684,0.339-1.024,1.023-1.024h8.299c1.538,0,1.982-0.377,1.982-1.981v-0.309c0-1.536-0.444-1.98-1.982-1.98H216.552z
				 M273.371,268.272c-1.545,0-1.991,0.445-1.991,1.99v12.493c0,2.644-1.475,3.948-4.393,3.948c-2.951,0-4.428-1.305-4.428-3.948
				v-12.493c0-1.545-0.377-1.99-1.991-1.99h-0.617c-1.614,0-1.991,0.445-1.991,1.99v12.493c0,5.663,3.433,8.238,9.027,8.238
				c5.525,0,8.992-2.575,8.992-8.238v-12.493c0-1.545-0.445-1.99-1.99-1.99H273.371z M231.685,276.953v5.465
				c0,6.014,3.246,8.574,9.665,8.574c1.641,0,2.938-0.17,3.93-0.512c1.502-0.547,1.878-0.925,1.878-2.461v-0.273
				c0-1.604-0.41-1.945-1.914-1.536c-1.229,0.342-2.459,0.512-3.688,0.512c-3.928,0-5.157-1.604-5.157-4.304v-5.465
				c0-3.177,1.468-4.645,4.986-4.645c1.264,0,2.527,0.205,3.791,0.579c1.502,0.445,1.981,0.068,1.981-1.535v-0.273
				c0-1.503-0.376-1.88-1.914-2.459c-0.989-0.377-2.253-0.582-3.858-0.582C234.931,268.038,231.685,271.353,231.685,276.953
				 M279.623,273.695c0,2.505,1.167,4.428,3.466,5.767l4.395,2.572c2.196,1.271,2.745,1.82,2.745,2.815
				c0,1.373-0.995,1.854-3.741,1.854c-1.752,0-3.467-0.24-5.218-0.687c-1.543-0.413-1.99,0-1.99,1.611v0.345
				c0,1.545,0.344,1.922,1.956,2.368c1.545,0.447,3.297,0.652,5.183,0.652c6.041,0,8.547-2.129,8.547-6.145
				c0-2.917-1.271-4.529-4.153-6.213l-4.566-2.677c-1.474-0.857-1.886-1.303-1.886-2.128c0-1.234,0.927-1.613,3.261-1.613
				c1.682,0,3.09,0.172,4.29,0.549c1.613,0.446,2.024,0.104,2.024-1.543v-0.344c0-1.545-0.378-1.956-2.024-2.403
				c-1.305-0.378-2.745-0.548-4.29-0.548C282.024,267.93,279.623,269.851,279.623,273.695 M306.02,274.657
				c0.31-1.133,0.551-1.82,0.721-2.13c0.173-0.309,0.551-0.479,1.065-0.479c0.516,0,0.892,0.171,1.064,0.479
				c0.172,0.31,0.412,0.997,0.719,2.13l1.648,6.383h-6.899L306.02,274.657z M303.583,269.576c-0.926,1.236-1.304,2.3-1.99,4.874
				l-3.844,14.211c-0.412,1.543-0.139,1.921,1.476,1.921h0.652c1.612,0,2.093-0.378,2.506-1.921l0.894-3.502h9.061l0.891,3.502
				c0.412,1.543,0.894,1.921,2.506,1.921h0.651c1.614,0,1.889-0.378,1.477-1.921l-3.844-14.211c-0.687-2.574-1.063-3.638-1.99-4.874
				c-0.928-1.235-2.163-1.646-4.222-1.646C305.746,267.93,304.51,268.341,303.583,269.576 M127.864,269.8
				c0.403-1.478,0.717-2.375,0.94-2.777c0.224-0.403,0.718-0.627,1.388-0.627c0.672,0,1.165,0.224,1.389,0.627
				c0.226,0.402,0.539,1.3,0.941,2.777l2.15,8.331h-9.002L127.864,269.8z M124.685,263.171c-1.208,1.613-1.703,3-2.596,6.359
				l-5.019,18.544c-0.538,2.014-0.18,2.508,1.925,2.508h0.852c2.105,0,2.732-0.494,3.27-2.508l1.166-4.568h11.824l1.165,4.568
				c0.537,2.014,1.164,2.508,3.269,2.508h0.852c2.105,0,2.463-0.494,1.926-2.508l-5.017-18.544
				c-0.897-3.359-1.388-4.746-2.597-6.359c-1.211-1.613-2.822-2.149-5.512-2.149C127.507,261.021,125.893,261.558,124.685,263.171
				 M188.419,268.546c0,3.269,1.521,5.778,4.521,7.524l5.734,3.358c2.865,1.656,3.582,2.375,3.582,3.675
				c0,1.79-1.297,2.417-4.883,2.417c-2.282,0-4.522-0.313-6.807-0.896c-2.016-0.537-2.598,0-2.598,2.104v0.45
				c0,2.015,0.449,2.507,2.553,3.09c2.016,0.581,4.3,0.852,6.764,0.852c7.883,0,11.152-2.776,11.152-8.017
				c0-3.809-1.656-5.914-5.419-8.108l-5.957-3.494c-1.926-1.119-2.464-1.701-2.464-2.776c0-1.613,1.21-2.105,4.255-2.105
				c2.195,0,4.03,0.225,5.599,0.717c2.106,0.581,2.643,0.135,2.643-2.016v-0.449c0-2.014-0.492-2.552-2.643-3.133
				c-1.701-0.494-3.584-0.717-5.599-0.717C191.553,261.021,188.419,263.529,188.419,268.546"/>
			<path fill="#BBBDBF" d="M285.017,109.023l-0.918-2.839c1.626-0.628,2.783-2.195,2.783-4.044c0-2.399-1.944-4.345-4.346-4.345
				c-1.627,0-3.027,0.903-3.771,2.227l-3.055-1.362c-4.968-2.223-10.029-4.116-15.162-5.729c0.051-0.213,0.084-0.432,0.084-0.66
				c0-1.567-1.271-2.838-2.838-2.838c-1.242,0-2.285,0.803-2.672,1.914c-10.624-2.87-21.567-4.461-32.734-4.762
				c0.001-0.026,0.009-0.051,0.009-0.076c0-2.4-1.946-4.346-4.346-4.346s-4.347,1.945-4.347,4.346c0,0.032,0.01,0.063,0.01,0.097
				c-11.1,0.361-21.974,2.005-32.536,4.914c-0.332-1.2-1.419-2.087-2.726-2.087c-1.566,0-2.836,1.271-2.836,2.838
				c0,0.302,0.059,0.588,0.146,0.86c-5.3,1.691-10.526,3.688-15.643,6.029l-2.704,1.235c-0.673-1.53-2.196-2.601-3.976-2.601
				c-2.4,0-4.346,1.945-4.346,4.345c0,1.881,1.202,3.468,2.875,4.072l-1.059,3.359c-3.402,10.783-4.125,34.18-4.125,38.335
				c0,21.394,7.589,41.341,20.502,56.925c2.246,2.706,4.654,5.275,7.206,7.702c-0.452,0.503-0.735,1.161-0.735,1.89
				c0,1.567,1.271,2.838,2.838,2.838c0.843,0,1.592-0.375,2.112-0.959c8.611,7.218,18.671,12.866,29.802,16.454
				c1.74,0.564,3.512,1.073,5.308,1.535l0.036,0.008c-0.088,0.345-0.15,0.699-0.15,1.072c0,2.4,1.947,4.346,4.347,4.346
				s4.346-1.945,4.346-4.346c0-0.371-0.062-0.727-0.149-1.07l0.042-0.01c1.837-0.47,3.649-0.994,5.428-1.566
				c11.047-3.582,21.039-9.193,29.607-16.358c0.517,0.548,1.247,0.895,2.062,0.895c1.565,0,2.837-1.271,2.837-2.838
				c0-0.696-0.261-1.327-0.678-1.82c2.444-2.321,4.75-4.77,6.909-7.343c13.135-15.647,20.86-35.762,20.86-57.354
				C289.314,143.696,288.567,120.006,285.017,109.023"/>
			<linearGradient id="SVGID_2_" gradientUnits="userSpaceOnUse" x1="281.2471" y1="99.396" x2="72.277" y2="256.8126">
				<stop  offset="0" style="stop-color:#F1F1F2"/>
				<stop  offset="1" style="stop-color:#BBBDBF"/>
			</linearGradient>
			<path fill="url(#SVGID_2_)" d="M215.2,83.767c-12.562,0.278-24.842,2.193-36.715,5.723c-6.238,1.851-12.373,4.147-18.365,6.89
				l-5.674,2.591l-0.857,0.39l-0.389,0.175l-2.289,7.255c-3.402,10.784-4.125,34.18-4.125,38.337
				c0,21.394,7.589,41.34,20.502,56.924c2.838,3.417,5.92,6.628,9.242,9.592c9.076,8.121,19.9,14.439,31.98,18.332
				c1.74,0.566,3.512,1.074,5.308,1.535l4.235,1.08l0.23-0.055l0.391-0.104l3.614-0.922c1.837-0.469,3.649-0.994,5.43-1.566
				c11.958-3.878,22.688-10.131,31.708-18.166c3.242-2.885,6.254-5.992,9.027-9.298c13.135-15.647,20.86-35.761,20.86-57.353
				c0-4.212-0.747-27.902-4.298-38.885l-2.347-7.256l-0.61-0.278l-0.255-0.11l-6.095-2.718c-5.898-2.64-11.92-4.84-18.049-6.62
				c-11.832-3.441-24.078-5.277-36.594-5.5c-0.867-0.023-1.733-0.031-2.601-0.031C217.38,83.728,216.289,83.743,215.2,83.767"/>
			<path fill="#BBBDBF" d="M282.224,99.39c-13.811,3.133-26.974,9.497-38.066,18.406c-10.762,8.64-19.62,19.724-25.69,32.073v-4.271
				c1.979-24.133,17.024-45.458,39.486-55.277c0.102-0.046,0.148-0.163,0.104-0.265c-0.048-0.103-0.163-0.147-0.267-0.104
				c-21.469,9.386-36.199,29.226-39.323,52.007V84.605c0-0.111-0.09-0.202-0.2-0.202c-0.111,0-0.201,0.091-0.201,0.202v60.973
				c-0.01,0.12-0.03,0.236-0.041,0.355c-1.857-24.2-16.841-45.728-39.246-55.75c-0.098-0.046-0.22-0.001-0.266,0.101
				c-0.045,0.102,0,0.222,0.103,0.267c23.267,10.409,38.451,33.308,39.144,58.673c-6.168-12.02-14.988-22.776-25.636-31.154
				c-11.185-8.803-24.423-15.037-38.281-18.029c-0.12-0.031-0.216,0.045-0.238,0.153c-0.024,0.109,0.045,0.216,0.152,0.24
				c13.8,2.979,26.98,9.187,38.118,17.951c10.821,8.516,19.762,19.49,25.918,31.761c0.005,0.294,0.033,0.585,0.033,0.88
				c0,27.014-16.157,51.077-41.159,61.309c-0.104,0.042-0.154,0.16-0.109,0.262c0.03,0.078,0.104,0.125,0.185,0.125
				c0.026,0,0.053-0.006,0.077-0.016c23.798-9.737,39.608-31.936,41.247-57.314v78.076c0,0.11,0.09,0.201,0.201,0.201
				c0.11,0,0.2-0.091,0.2-0.201v-75.688c2.448,24.373,17.983,45.496,41.03,54.926c0.025,0.01,0.049,0.016,0.076,0.016
				c0.079,0,0.154-0.047,0.186-0.125c0.043-0.102-0.007-0.22-0.109-0.262c-25.004-10.231-41.16-34.295-41.16-61.309
				c0-0.021-0.018-0.036-0.022-0.055v-0.235c0-0.003,0.005-0.002,0.007-0.005c6.051-12.576,15.019-23.856,25.936-32.622
				c11.047-8.869,24.153-15.207,37.906-18.328c0.106-0.024,0.175-0.131,0.15-0.238S282.347,99.366,282.224,99.39"/>
			<g>
				<defs>
					<path id="SVGID_3_" d="M149.141,99.438c0,2.4,1.946,4.346,4.347,4.346c2.399,0,4.346-1.945,4.346-4.346
						s-1.946-4.345-4.346-4.345C151.087,95.094,149.141,97.038,149.141,99.438"/>
				</defs>
				<clipPath id="SVGID_4_">
					<use xlink:href="#SVGID_3_"  overflow="visible"/>
				</clipPath>
				
					<linearGradient id="SVGID_5_" gradientUnits="userSpaceOnUse" x1="-2655.4326" y1="437.7715" x2="-2654.6455" y2="437.7715" gradientTransform="matrix(11.0421 0 0 -11.0421 29470.6914 4933.3506)">
					<stop  offset="0" style="stop-color:#008A86"/>
					<stop  offset="1" style="stop-color:#005A60"/>
				</linearGradient>
				<rect x="149.141" y="95.094" clip-path="url(#SVGID_4_)" fill="url(#SVGID_5_)" width="8.692" height="8.69"/>
			</g>
			<path fill="#FFFFFF" d="M153.485,97.199c-1.236,0-2.238,1.003-2.238,2.239s1.002,2.238,2.238,2.238
				c1.237,0,2.24-1.002,2.24-2.238S154.723,97.199,153.485,97.199 M153.485,101.283c-1.018,0-1.844-0.826-1.844-1.845
				s0.826-1.846,1.844-1.846c1.02,0,1.846,0.827,1.846,1.846S154.505,101.283,153.485,101.283"/>
			<g>
				<defs>
					<path id="SVGID_6_" d="M175.919,89.568c0,1.487,1.205,2.691,2.691,2.691s2.691-1.204,2.691-2.691s-1.205-2.691-2.691-2.691
						S175.919,88.081,175.919,89.568"/>
				</defs>
				<clipPath id="SVGID_7_">
					<use xlink:href="#SVGID_6_"  overflow="visible"/>
				</clipPath>
				
					<linearGradient id="SVGID_8_" gradientUnits="userSpaceOnUse" x1="-2491.1475" y1="434.5215" x2="-2490.3604" y2="434.5215" gradientTransform="matrix(6.839 0 0 -6.839 17212.877 3061.2581)">
					<stop  offset="0" style="stop-color:#008A86"/>
					<stop  offset="1" style="stop-color:#005A60"/>
				</linearGradient>
				<rect x="175.919" y="86.877" clip-path="url(#SVGID_7_)" fill="url(#SVGID_8_)" width="5.383" height="5.383"/>
			</g>
			<path fill="#FFFFFF" d="M178.61,88.182c-0.766,0-1.387,0.621-1.387,1.387s0.621,1.387,1.387,1.387s1.387-0.621,1.387-1.387
				S179.376,88.182,178.61,88.182 M178.61,90.711c-0.632,0-1.143-0.512-1.143-1.143s0.511-1.143,1.143-1.143
				s1.144,0.512,1.144,1.143S179.242,90.711,178.61,90.711"/>
			<g>
				<defs>
					<path id="SVGID_9_" d="M213.778,232.511c0,2.398,1.945,4.346,4.345,4.346s4.347-1.947,4.347-4.346
						c0-2.4-1.947-4.346-4.347-4.346S213.778,230.11,213.778,232.511"/>
				</defs>
				<clipPath id="SVGID_10_">
					<use xlink:href="#SVGID_9_"  overflow="visible"/>
				</clipPath>
				
					<linearGradient id="SVGID_11_" gradientUnits="userSpaceOnUse" x1="-2657.0166" y1="441.0303" x2="-2656.2295" y2="441.0303" gradientTransform="matrix(11.0421 0 0 -11.0421 29552.8164 5102.4131)">
					<stop  offset="0" style="stop-color:#0092D1"/>
					<stop  offset="1" style="stop-color:#022541"/>
				</linearGradient>
				<rect x="213.778" y="228.165" clip-path="url(#SVGID_10_)" fill="url(#SVGID_11_)" width="8.691" height="8.691"/>
			</g>
			<path fill="#FFFFFF" d="M218.124,230.271c-1.236,0-2.238,1.004-2.238,2.24s1.002,2.238,2.238,2.238s2.238-1.002,2.238-2.238
				S219.36,230.271,218.124,230.271 M218.124,234.354c-1.02,0-1.846-0.826-1.846-1.844c0-1.02,0.826-1.847,1.846-1.847
				s1.845,0.827,1.845,1.847C219.969,233.528,219.144,234.354,218.124,234.354"/>
			<g>
				<defs>
					<path id="SVGID_12_" d="M278.124,99.438c0,2.4,1.947,4.346,4.346,4.346c2.4,0,4.346-1.945,4.346-4.346
						s-1.945-4.345-4.346-4.345C280.071,95.094,278.124,97.038,278.124,99.438"/>
				</defs>
				<clipPath id="SVGID_13_">
					<use xlink:href="#SVGID_12_"  overflow="visible"/>
				</clipPath>
				
					<linearGradient id="SVGID_14_" gradientUnits="userSpaceOnUse" x1="-2658.5928" y1="437.7715" x2="-2657.8057" y2="437.7715" gradientTransform="matrix(11.0421 0 0 -11.0421 29634.5664 4933.3506)">
					<stop  offset="0" style="stop-color:#008A86"/>
					<stop  offset="1" style="stop-color:#005A60"/>
				</linearGradient>
				<rect x="278.124" y="95.094" clip-path="url(#SVGID_13_)" fill="url(#SVGID_14_)" width="8.691" height="8.69"/>
			</g>
			<path fill="#FFFFFF" d="M282.47,97.199c-1.236,0-2.238,1.003-2.238,2.239s1.002,2.238,2.238,2.238s2.239-1.002,2.239-2.238
				S283.706,97.199,282.47,97.199 M282.47,101.283c-1.019,0-1.845-0.826-1.845-1.845s0.826-1.846,1.845-1.846
				c1.02,0,1.845,0.827,1.845,1.846S283.489,101.283,282.47,101.283"/>
			<g>
				<defs>
					<path id="SVGID_15_" d="M213.778,83.807c0,2.4,1.947,4.346,4.346,4.346c2.4,0,4.346-1.945,4.346-4.346
						c0-2.399-1.945-4.346-4.346-4.346C215.726,79.461,213.778,81.407,213.778,83.807"/>
				</defs>
				<clipPath id="SVGID_16_">
					<use xlink:href="#SVGID_15_"  overflow="visible"/>
				</clipPath>
				
					<linearGradient id="SVGID_17_" gradientUnits="userSpaceOnUse" x1="-2657.0166" y1="437.3887" x2="-2656.2295" y2="437.3887" gradientTransform="matrix(11.0421 0 0 -11.0421 29552.8164 4913.4834)">
					<stop  offset="0" style="stop-color:#008A86"/>
					<stop  offset="1" style="stop-color:#005A60"/>
				</linearGradient>
				<rect x="213.778" y="79.461" clip-path="url(#SVGID_16_)" fill="url(#SVGID_17_)" width="8.691" height="8.691"/>
			</g>
			<path fill="#FFFFFF" d="M218.124,81.567c-1.236,0-2.238,1.003-2.238,2.239c0,1.237,1.002,2.238,2.238,2.238
				s2.238-1.001,2.238-2.238C220.362,82.57,219.36,81.567,218.124,81.567 M218.124,85.651c-1.02,0-1.844-0.826-1.844-1.845
				c0-1.02,0.824-1.846,1.844-1.846s1.845,0.826,1.845,1.846C219.969,84.825,219.144,85.651,218.124,85.651"/>
			<g>
				<defs>
					<path id="SVGID_18_" d="M213.778,232.511c0,2.398,1.947,4.346,4.346,4.346c2.4,0,4.346-1.947,4.346-4.346
						c0-2.4-1.945-4.346-4.346-4.346C215.726,228.165,213.778,230.11,213.778,232.511"/>
				</defs>
				<clipPath id="SVGID_19_">
					<use xlink:href="#SVGID_18_"  overflow="visible"/>
				</clipPath>
				
					<linearGradient id="SVGID_20_" gradientUnits="userSpaceOnUse" x1="-2657.0166" y1="441.0303" x2="-2656.2295" y2="441.0303" gradientTransform="matrix(11.0421 0 0 -11.0421 29552.8164 5102.4131)">
					<stop  offset="0" style="stop-color:#008A86"/>
					<stop  offset="1" style="stop-color:#005A60"/>
				</linearGradient>
				<rect x="213.778" y="228.165" clip-path="url(#SVGID_19_)" fill="url(#SVGID_20_)" width="8.691" height="8.691"/>
			</g>
			<path fill="#FFFFFF" d="M218.124,230.271c-1.236,0-2.238,1.004-2.238,2.24s1.002,2.238,2.238,2.238s2.238-1.002,2.238-2.238
				S219.36,230.271,218.124,230.271 M218.124,234.354c-1.02,0-1.844-0.826-1.844-1.844c0-1.02,0.824-1.847,1.844-1.847
				s1.845,0.827,1.845,1.847C219.969,233.528,219.144,234.354,218.124,234.354"/>
			<g>
				<defs>
					<path id="SVGID_21_" d="M255.148,89.568c0,1.487,1.205,2.691,2.692,2.691c1.486,0,2.691-1.204,2.691-2.691
						s-1.205-2.691-2.691-2.691C256.354,86.877,255.148,88.081,255.148,89.568"/>
				</defs>
				<clipPath id="SVGID_22_">
					<use xlink:href="#SVGID_21_"  overflow="visible"/>
				</clipPath>
				
					<linearGradient id="SVGID_23_" gradientUnits="userSpaceOnUse" x1="-2494.2812" y1="434.5215" x2="-2493.4941" y2="434.5215" gradientTransform="matrix(6.839 0 0 -6.839 17313.5371 3061.2581)">
					<stop  offset="0" style="stop-color:#008A86"/>
					<stop  offset="1" style="stop-color:#005A60"/>
				</linearGradient>
				<rect x="255.148" y="86.877" clip-path="url(#SVGID_22_)" fill="url(#SVGID_23_)" width="5.384" height="5.383"/>
			</g>
			<path fill="#FFFFFF" d="M257.841,88.182c-0.767,0-1.388,0.621-1.388,1.387s0.621,1.387,1.388,1.387
				c0.765,0,1.386-0.621,1.386-1.387S258.605,88.182,257.841,88.182 M257.841,90.711c-0.633,0-1.144-0.512-1.144-1.143
				s0.511-1.143,1.144-1.143c0.631,0,1.142,0.512,1.142,1.143S258.472,90.711,257.841,90.711"/>
			<g>
				<defs>
					<path id="SVGID_24_" d="M257.026,211.721c0,1.487,1.205,2.691,2.692,2.691c1.486,0,2.691-1.204,2.691-2.691
						c0-1.486-1.205-2.691-2.691-2.691C258.231,209.029,257.026,210.234,257.026,211.721"/>
				</defs>
				<clipPath id="SVGID_25_">
					<use xlink:href="#SVGID_24_"  overflow="visible"/>
				</clipPath>
				
					<linearGradient id="SVGID_26_" gradientUnits="userSpaceOnUse" x1="-2494.3555" y1="439.3525" x2="-2493.5684" y2="439.3525" gradientTransform="matrix(6.839 0 0 -6.839 17315.9238 3216.4495)">
					<stop  offset="0" style="stop-color:#008A86"/>
					<stop  offset="1" style="stop-color:#005A60"/>
				</linearGradient>
				<rect x="257.026" y="209.029" clip-path="url(#SVGID_25_)" fill="url(#SVGID_26_)" width="5.384" height="5.383"/>
			</g>
			<path fill="#FFFFFF" d="M259.719,210.334c-0.767,0-1.388,0.621-1.388,1.387s0.621,1.388,1.388,1.388
				c0.766,0,1.387-0.622,1.387-1.388S260.484,210.334,259.719,210.334 M259.719,212.863c-0.632,0-1.143-0.511-1.143-1.143
				c0-0.631,0.511-1.143,1.143-1.143s1.142,0.512,1.142,1.143C260.86,212.353,260.351,212.863,259.719,212.863"/>
			<g>
				<defs>
					<path id="SVGID_27_" d="M174.14,211.721c0,1.487,1.205,2.691,2.691,2.691c1.487,0,2.69-1.204,2.69-2.691
						c0-1.486-1.203-2.691-2.69-2.691C175.345,209.029,174.14,210.234,174.14,211.721"/>
				</defs>
				<clipPath id="SVGID_28_">
					<use xlink:href="#SVGID_27_"  overflow="visible"/>
				</clipPath>
				
					<linearGradient id="SVGID_29_" gradientUnits="userSpaceOnUse" x1="-2491.0771" y1="439.3525" x2="-2490.29" y2="439.3525" gradientTransform="matrix(6.839 0 0 -6.839 17210.6152 3216.4495)">
					<stop  offset="0" style="stop-color:#008A86"/>
					<stop  offset="1" style="stop-color:#005A60"/>
				</linearGradient>
				<rect x="174.14" y="209.029" clip-path="url(#SVGID_28_)" fill="url(#SVGID_29_)" width="5.382" height="5.383"/>
			</g>
			<path fill="#FFFFFF" d="M176.831,210.334c-0.766,0-1.388,0.621-1.388,1.387s0.622,1.388,1.388,1.388
				c0.767,0,1.388-0.622,1.388-1.388S177.598,210.334,176.831,210.334 M176.831,212.863c-0.631,0-1.143-0.511-1.143-1.143
				c0-0.631,0.512-1.143,1.143-1.143s1.144,0.512,1.144,1.143C177.975,212.353,177.462,212.863,176.831,212.863"/>
			<linearGradient id="SVGID_30_" gradientUnits="userSpaceOnUse" x1="251.7637" y1="118.5942" x2="184.0746" y2="189.0381">
				<stop  offset="0" style="stop-color:#008A86"/>
				<stop  offset="1" style="stop-color:#005A60"/>
			</linearGradient>
			<path fill="url(#SVGID_30_)" d="M267.534,153.968c0,27.481-22.278,49.761-49.76,49.761c-27.482,0-49.76-22.279-49.76-49.761
				s22.277-49.76,49.76-49.76C245.256,104.208,267.534,126.486,267.534,153.968"/>
			<path fill="none" d="M168.013,152.719c0,27.481,22.278,49.76,49.762,49.76c27.481,0,49.76-22.278,49.76-49.76
				c0-27.482-22.278-49.761-49.76-49.761C190.291,102.958,168.013,125.236,168.013,152.719"/>
			<path fill="#FFFFFF" d="M235.486,190.775c0.921-2.268,1.255-14.27-0.238-25.722c-0.909-7.001-2.065-13.418-2.929-17.794
				c0.236-0.069,0.465-0.155,0.686-0.258l2.146,4.475c0,0,4.099,3.571,4.386,3.19c0.283-0.383-3.244-3.465-3.624-3.75
				c-0.073-0.213-0.477-1.424-0.899-2.697l1.109,1.264c0,0,6.41,1.731,6.562,1.279c0.146-0.449-5.567-2.059-5.98-2.195
				c-0.268-0.31-0.67-1.351-1.422-2.658l3.527,1.374c0,0,5.898-0.632,5.809-1.099c-0.094-0.464-4.85,0.096-5.44,0.213
				c-0.265-0.171-1.876-1.218-3.491-2.273c0.525-1.393,0.477-3.018-0.112-4.553c2.244,1.053,4.57,0.97,5.963-0.422
				c0.444-0.44,0.747-0.979,0.932-1.576c0.413-0.066,0.798-0.258,1.105-0.564c0.827-0.829,0.802-2.189-0.056-3.039
				c-0.416-0.421-0.956-0.637-1.492-0.658c1.385-0.672,3.259-1.466,3.861-1.411c1.371,0.131,3.801,1.721,3.823,1.736
				c0.158,0.104,0.368,0.059,0.472-0.096c0.104-0.16,0.062-0.366-0.098-0.474c-0.106-0.071-2.593-1.698-4.133-1.845
				c-0.884-0.078-3.102,0.929-4.235,1.483c-0.424-0.776-0.987-1.527-1.674-2.219c-0.688-0.691-1.442-1.248-2.22-1.672
				c0.553-1.133,1.562-3.352,1.485-4.239c-0.144-1.539-1.777-4.027-1.849-4.131c-0.1-0.159-0.312-0.202-0.475-0.101
				c-0.157,0.104-0.2,0.314-0.097,0.474c0.021,0.021,1.609,2.451,1.74,3.82c0.052,0.605-0.739,2.479-1.408,3.867
				c-0.024-0.546-0.238-1.078-0.659-1.501c-0.853-0.848-2.213-0.875-3.039-0.05c-0.305,0.31-0.496,0.692-0.569,1.104
				c-0.597,0.18-1.13,0.491-1.574,0.931c-1.394,1.395-1.468,3.726-0.419,5.963c-1.538-0.589-3.16-0.633-4.557-0.108
				c-1.051-1.617-2.099-3.23-2.271-3.488c0.123-0.597,0.677-5.351,0.211-5.446c-0.465-0.092-1.094,5.816-1.094,5.816l1.372,3.524
				c-1.307-0.752-2.349-1.158-2.66-1.423c-0.133-0.412-1.744-6.126-2.202-5.979c-0.445,0.149,1.286,6.561,1.286,6.561l1.261,1.109
				c-1.27-0.422-2.478-0.831-2.688-0.898c-0.293-0.388-3.372-3.908-3.753-3.622c-0.385,0.283,3.192,4.384,3.192,4.384l4.468,2.141
				c-0.099,0.225-0.185,0.448-0.258,0.683c-4.37-0.857-10.794-2.009-17.794-2.919c-11.449-1.498-23.447-1.158-25.718-0.244
				c-2.268,0.918,10.55,8.214,13.991,9.119c6.621,1.751,9.421,1.376,10.318,1.27c2.729-0.317,4.092-2.965,7.784-3.132
				c1.142-0.048,6.849-0.62,11.294-1.082c0.228,1.133,0.734,2.264,1.534,3.27c-4.05-3.019-8.896,1.421-15.345,7.874
				c-6.849,6.845-13.207,22.041-13.207,22.041s15.199-6.353,22.048-13.204c6.45-6.444,10.888-11.294,7.872-15.339
				c1.003,0.794,2.133,1.304,3.266,1.528c-0.46,4.452-1.035,10.153-1.08,11.293c-0.162,3.693-2.811,5.061-3.137,7.792
				c-0.105,0.894-0.48,3.689,1.275,10.312C227.285,180.223,234.569,193.043,235.486,190.775"/>
			<g>
				<path fill="#404041" d="M61.59,346.065c0-2.195,0.627-2.822,2.572-2.134c3.198,1.004,6.587,1.507,10.161,1.507
					c5.709,0,8.092-1.13,8.092-4.392c0-1.254-0.375-2.258-1.129-3.011c-0.752-0.814-2.195-1.818-4.266-3.074l-8.656-5.205
					c-4.202-2.51-6.271-5.897-6.271-10.226c0-6.712,4.391-9.912,13.862-9.912c3.324,0,6.21,0.439,8.72,1.256
					c2.195,0.69,2.695,1.128,2.695,3.138v1.066c0,2.194-0.438,2.634-2.508,2.068c-2.635-0.878-5.583-1.317-8.907-1.317
					c-5.019,0-7.089,1.067-7.089,3.889c0,2.07,1.004,3.137,3.952,4.894l8.908,5.458c5.019,3.011,7.465,5.708,7.465,10.977
					c0,7.089-4.706,10.603-14.993,10.603c-3.826,0-7.213-0.503-10.099-1.443c-2.07-0.69-2.51-1.067-2.51-3.138V346.065z"/>
				<path fill="#404041" d="M121.371,341.611c0,6.964-4.077,10.036-13.36,10.036c-8.469,0-12.735-3.198-12.735-9.66
					c0-6.712,4.517-9.471,12.798-9.471h6.899v-3.075c0-3.699-2.446-4.766-7.401-4.766c-2.51,0-4.705,0.188-6.586,0.563
					c-1.82,0.313-2.322-0.062-2.322-2.007v-0.878c0-1.819,0.502-2.384,2.26-2.697c1.943-0.315,4.013-0.503,6.272-0.503
					c9.095,0,14.176,2.824,14.176,10.287V341.611z M114.973,337.409h-6.899c-4.328,0-6.336,1.254-6.336,4.452
					c0,3.324,2.384,4.33,6.147,4.33c4.705,0,7.088-0.942,7.088-4.894V337.409z"/>
				<path fill="#404041" d="M299.932,358.242c-0.634-0.147-0.731-0.342-0.878-0.976c-0.049-0.391-0.098-1.267-0.098-2.584
					c0-6.677,1.268-9.99,3.851-9.99c1.608,0,2.632,1.219,2.632,3.168c0,1.17-0.487,2.778-1.414,4.776
					c-0.925,1.999-1.803,3.703-2.68,5.116c-0.293,0.489-0.682,0.684-1.218,0.536L299.932,358.242z M327.387,339.672
					c0,3.85,1.754,6.141,7.358,6.141c1.755,0,3.511-0.243,5.265-0.73c2.144-0.585,2.729-0.098,2.729,2.193v0.391
					c0,2.193-0.536,2.729-2.68,3.509c-1.414,0.486-3.267,0.729-5.605,0.729c-9.162,0-13.792-3.655-13.792-12.232v-7.798
					c0-7.992,4.63-12.72,13.841-12.72c2.29,0,4.093,0.293,5.508,0.829c2.192,0.828,2.729,1.364,2.729,3.508v0.391
					c0,2.289-0.682,2.827-2.827,2.193c-1.803-0.536-3.606-0.829-5.409-0.829c-5.02,0-7.115,2.096-7.115,6.628V339.672z
					 M375.048,348.591l-5.459-20.176c-0.975-3.655-1.511-5.167-2.825-6.922c-1.316-1.754-3.072-2.339-5.995-2.339
					c-2.925,0-4.679,0.585-5.995,2.339c-1.316,1.755-1.852,3.267-2.826,6.922l-5.459,20.176c-0.585,2.193-0.195,2.729,2.096,2.729
					h0.926c2.291,0,2.973-0.535,3.559-2.729l1.267-4.971h12.867l1.267,4.971c0.584,2.193,1.268,2.729,3.558,2.729h0.926
					C375.243,351.319,375.633,350.784,375.048,348.591z M355.846,337.771l2.389-9.064c0.438-1.609,0.779-2.583,1.022-3.022
					c0.243-0.438,0.78-0.682,1.512-0.682c0.73,0,1.267,0.243,1.511,0.682c0.244,0.439,0.584,1.413,1.023,3.022l2.34,9.064H355.846z
					 M135.549,331.324c0-4.265,1.632-6.146,7.213-6.146c5.584,0,7.152,1.882,7.152,6.146v16.812c0,2.258,0.563,2.823,2.823,2.823
					h0.814c2.259,0,2.822-0.565,2.822-2.823v-16.812c0-8.092-4.076-12.17-13.612-12.17c-9.094,0-13.673,4.078-13.673,12.17v16.812
					c0,2.258,0.563,2.823,2.822,2.823h0.815c2.259,0,2.822-0.565,2.822-2.823V331.324z M190.124,313.07
					c0-2.321-0.564-2.885-2.886-2.885h-0.815c-2.322,0-2.886,0.563-2.886,2.885v28.541c0,6.9-1.757,11.919-5.206,15.054
					c-1.317,1.256-1.507,2.008-0.313,3.827l0.438,0.629c1.066,1.567,2.195,1.881,3.388,0.878c2.634-2.26,4.642-4.957,6.085-8.093
					c1.443-3.073,2.195-7.339,2.195-12.733V313.07z M198.531,338.1v-5.396c0-8.782,4.704-13.55,14.427-13.55
					c9.975,0,14.303,4.518,14.303,13.55v5.396c0,8.719-4.705,13.55-14.303,13.55C202.921,351.649,198.531,347.132,198.531,338.1
					 M220.8,332.704c0-5.27-1.758-7.527-7.842-7.527c-6.085,0-7.967,2.258-7.967,7.527v5.396c0,5.207,1.756,7.465,7.967,7.465
					c6.084,0,7.842-2.196,7.842-7.465V332.704z M234.099,347.509c0,2.07,0.439,2.508,2.509,3.073
					c2.634,0.69,5.521,1.067,8.594,1.067c8.846,0,12.671-2.761,12.671-8.782c0-4.707-2.133-6.901-6.711-8.846l-7.277-3.137
					c-2.195-1.004-2.948-1.692-2.948-3.198c0-1.818,1.443-2.571,5.521-2.571c2.572,0,5.08,0.313,7.465,1.002
					c2.008,0.565,2.572,0.062,2.572-2.132v-0.753c0-2.07-0.439-2.447-2.635-3.137c-2.26-0.628-4.705-0.941-7.277-0.941
					c-8.342,0-11.98,2.697-11.98,8.532c0,4.58,1.943,6.712,6.21,8.531l6.774,3.011c3.199,1.442,4.014,2.195,4.014,3.765
					c0,2.005-1.567,2.695-5.832,2.695c-3.075,0-6.085-0.377-9.159-1.191c-2.007-0.502-2.509,0-2.509,2.197V347.509z M292.06,334.899
					c-0.25,2.32-0.877,2.887-3.199,2.887h-17.437v1.38c0,4.578,2.633,6.398,8.97,6.398c2.571,0,5.27-0.315,8.154-1.004
					c2.008-0.503,2.571,0,2.571,2.194v0.816c0,2.068-0.376,2.509-2.571,3.072c-2.51,0.692-5.207,1.006-8.154,1.006
					c-10.539,0-15.432-3.952-15.432-13.426v-5.456c0-9.096,4.642-13.613,13.926-13.613c8.719,0,13.299,4.454,13.299,12.986
					C292.187,333.081,292.123,333.959,292.06,334.899 M271.424,332.517h14.678v-1.569c0-4.139-2.446-6.209-7.401-6.209
					c-4.832,0-7.276,2.07-7.276,6.209V332.517z"/>
			</g>
			<linearGradient id="SVGID_31_" gradientUnits="userSpaceOnUse" x1="216.8662" y1="361.9004" x2="220.0506" y2="310.1554">
				<stop  offset="0" style="stop-color:#FFFFFF"/>
				<stop  offset="1" style="stop-color:#D0D2D3"/>
			</linearGradient>
			<path fill="url(#SVGID_31_)" d="M299.932,355.956c-0.634-0.146-0.731-0.34-0.878-0.974c-0.049-0.391-0.098-1.269-0.098-2.584
				c0-6.677,1.268-9.99,3.851-9.99c1.608,0,2.632,1.219,2.632,3.166c0,1.171-0.487,2.778-1.414,4.777
				c-0.925,1.998-1.803,3.704-2.68,5.117c-0.293,0.487-0.682,0.682-1.218,0.536L299.932,355.956z M327.387,337.388
				c0,3.851,1.754,6.142,7.358,6.142c1.755,0,3.511-0.244,5.265-0.732c2.144-0.583,2.729-0.097,2.729,2.192v0.391
				c0,2.193-0.536,2.729-2.68,3.511c-1.414,0.486-3.267,0.73-5.605,0.73c-9.162,0-13.792-3.656-13.792-12.233v-7.798
				c0-7.993,4.63-12.719,13.841-12.719c2.29,0,4.093,0.29,5.508,0.828c2.192,0.828,2.729,1.364,2.729,3.508v0.39
				c0,2.291-0.682,2.826-2.827,2.194c-1.803-0.536-3.606-0.828-5.409-0.828c-5.02,0-7.115,2.095-7.115,6.627V337.388z
				 M375.048,346.307c0.585,2.193,0.195,2.729-2.096,2.729h-0.926c-2.29,0-2.974-0.536-3.558-2.729l-1.267-4.971h-12.867
				l-1.267,4.971c-0.586,2.193-1.268,2.729-3.559,2.729h-0.926c-2.291,0-2.681-0.536-2.096-2.729l5.459-20.178
				c0.975-3.653,1.51-5.165,2.826-6.92c1.316-1.753,3.07-2.338,5.995-2.338c2.923,0,4.679,0.585,5.995,2.338
				c1.314,1.755,1.851,3.267,2.825,6.92L375.048,346.307z M355.846,335.487h9.797l-2.34-9.065c-0.439-1.608-0.779-2.582-1.023-3.021
				c-0.244-0.438-0.78-0.682-1.511-0.682c-0.731,0-1.269,0.244-1.512,0.682c-0.243,0.439-0.585,1.413-1.022,3.021L355.846,335.487z
				 M101.737,339.438c0-3.2,2.008-4.454,6.336-4.454h6.9v3.89c0,3.952-2.385,4.893-7.089,4.893
				C104.12,343.766,101.737,342.762,101.737,339.438 M100.923,317.231c-1.758,0.312-2.26,0.878-2.26,2.697v0.878
				c0,1.944,0.502,2.322,2.322,2.007c1.881-0.375,4.076-0.563,6.586-0.563c4.955,0,7.402,1.066,7.402,4.768v3.073h-6.9
				c-8.279,0-12.798,2.759-12.798,9.471c0,6.462,4.267,9.66,12.735,9.66c9.283,0,13.36-3.072,13.36-10.036v-12.168
				c0-7.465-5.081-10.289-14.177-10.289C104.936,316.729,102.866,316.918,100.923,317.231 M129.089,328.898v16.812
				c0,2.259,0.563,2.823,2.821,2.823h0.816c2.258,0,2.822-0.564,2.822-2.823v-16.812c0-4.265,1.632-6.147,7.213-6.147
				c5.584,0,7.151,1.883,7.151,6.147v16.812c0,2.259,0.564,2.823,2.822,2.823h0.816c2.259,0,2.822-0.564,2.822-2.823v-16.812
				c0-8.092-4.077-12.17-13.612-12.17C133.667,316.729,129.089,320.807,129.089,328.898 M204.991,335.673v-5.393
				c0-5.271,1.882-7.529,7.967-7.529c6.084,0,7.842,2.259,7.842,7.529v5.393c0,5.27-1.758,7.466-7.842,7.466
				C206.747,343.139,204.991,340.881,204.991,335.673 M198.531,330.28v5.393c0,9.035,4.39,13.549,14.427,13.549
				c9.598,0,14.302-4.829,14.302-13.549v-5.393c0-9.034-4.328-13.552-14.302-13.552C203.235,316.729,198.531,321.496,198.531,330.28
				 M234.601,325.261c0,4.58,1.943,6.712,6.21,8.531l6.774,3.011c3.199,1.443,4.014,2.195,4.014,3.763
				c0,2.009-1.566,2.699-5.832,2.699c-3.074,0-6.084-0.377-9.159-1.193c-2.007-0.501-2.509,0-2.509,2.196v0.814
				c0,2.07,0.439,2.511,2.509,3.074c2.636,0.69,5.521,1.065,8.594,1.065c8.846,0,12.672-2.759,12.672-8.78
				c0-4.705-2.133-6.901-6.712-8.846l-7.277-3.137c-2.195-1.002-2.947-1.692-2.947-3.198c0-1.82,1.442-2.571,5.52-2.571
				c2.571,0,5.08,0.313,7.465,1.004c2.008,0.563,2.572,0.062,2.572-2.134v-0.753c0-2.068-0.439-2.445-2.636-3.138
				c-2.259-0.627-4.704-0.94-7.276-0.94C238.239,316.729,234.601,319.428,234.601,325.261 M271.424,328.521
				c0-4.139,2.444-6.209,7.276-6.209c4.954,0,7.402,2.07,7.402,6.209v1.569h-14.679V328.521z M264.962,330.342v5.458
				c0,9.472,4.893,13.422,15.432,13.422c2.948,0,5.645-0.312,8.154-1.002c2.195-0.564,2.571-1.004,2.571-3.074v-0.816
				c0-2.194-0.563-2.697-2.571-2.194c-2.885,0.69-5.584,1.004-8.154,1.004c-6.336,0-8.97-1.82-8.97-6.398v-1.381h17.437
				c2.322,0,2.949-0.565,3.199-2.885c0.063-0.94,0.126-1.819,0.126-2.76c0-8.532-4.579-12.986-13.298-12.986
				C269.604,316.729,264.962,321.246,264.962,330.342 M186.422,307.76c-2.319,0-2.885,0.563-2.885,2.885v28.541
				c0,6.9-1.757,11.919-5.206,15.054c-1.317,1.258-1.506,2.009-0.313,3.827l0.439,0.629c1.065,1.567,2.194,1.881,3.387,0.878
				c2.634-2.258,4.642-4.955,6.085-8.093c1.441-3.072,2.195-7.339,2.195-12.733v-28.103c0-2.321-0.564-2.885-2.887-2.885H186.422z
				 M62.093,317.105c0,4.328,2.068,7.716,6.271,10.226l8.656,5.205c2.07,1.256,3.514,2.258,4.266,3.074
				c0.754,0.753,1.131,1.757,1.131,3.011c0,3.263-2.385,4.392-8.093,4.392c-3.575,0-6.963-0.501-10.163-1.505
				c-1.944-0.69-2.571-0.063-2.571,2.132v1.005c0,2.068,0.439,2.445,2.509,3.136c2.887,0.94,6.273,1.441,10.1,1.441
				c10.287,0,14.991-3.512,14.991-10.601c0-5.269-2.444-7.966-7.464-10.977l-8.907-5.458c-2.947-1.757-3.952-2.821-3.952-4.892
				c0-2.824,2.07-3.891,7.089-3.891c3.323,0,6.272,0.439,8.907,1.317c2.069,0.565,2.508,0.126,2.508-2.07v-1.065
				c0-2.007-0.5-2.446-2.695-3.137c-2.511-0.814-5.396-1.254-8.72-1.254C66.483,307.195,62.093,310.394,62.093,317.105"/>
		</g>
		<text transform="matrix(1 0 0 1 116.1621 394.8486)" fill="#FFFFFF" font-family="'AmpleSoft'" font-size="26.0983">October 8-12, 2018</text>
	</g>
	<g>
		<g>
			<path fill="#FFFFFF" d="M182.293,63.43c-5.839,0-6.513-1.814-6.513-4.527v-8.092c0-2.69,0.674-4.524,6.513-4.524
				c5.865,0,6.539,1.834,6.539,4.524v8.092C188.832,61.615,188.158,63.43,182.293,63.43z M186.832,51.035
				c0-2.062-0.355-3.165-4.539-3.165c-4.154,0-4.508,1.104-4.508,3.165v7.643c0,2.059,0.354,3.165,4.508,3.165
				c4.184,0,4.539-1.106,4.539-3.165V51.035z"/>
			<path fill="#FFFFFF" d="M202.913,46.487v12.165c0,2.062,0.399,3.168,3.409,3.168c3.057,0,3.407-1.106,3.407-3.168V46.487h2.004
				v12.415c0,2.713-0.705,4.527-5.411,4.527c-2.684,0-3.886-1.106-4.415-1.964c-0.521,0.857-1.725,1.964-4.406,1.964
				c-4.71,0-5.413-1.814-5.413-4.527V46.487h2.006v12.165c0,2.062,0.35,3.168,3.407,3.168c3.007,0,3.408-1.106,3.408-3.168V46.487
				H202.913z"/>
			<path fill="#FFFFFF" d="M227.994,63.251h-2.002v-6.207h-8.919v6.207h-2.006v-12.44c0-2.69,0.626-4.524,6.466-4.524
				c5.836,0,6.461,1.834,6.461,4.524V63.251z M225.992,51.035c0-2.062-0.274-3.165-4.459-3.165c-4.186,0-4.46,1.104-4.46,3.165
				v4.249h8.919V51.035z"/>
			<path fill="#FFFFFF" d="M237.65,63.455c-5.838,0-6.468-1.84-6.468-4.528v-1.33h2.008v1.106c0,2.062,0.278,3.167,4.46,3.167
				c4.183,0,4.457-1.105,4.457-3.167V58.45c0-1.532-0.752-2.137-2.277-2.388l-5.214-0.829c-2.379-0.375-3.434-1.709-3.434-3.57
				v-0.826c0-2.717,0.63-4.529,6.468-4.529c5.84,0,6.465,1.812,6.465,4.529v0.577h-2.008v-0.353c0-2.062-0.274-3.166-4.457-3.166
				c-4.182,0-4.46,1.104-4.46,3.166v0.402c0,1.106,0.398,1.782,1.877,2.037l5.567,0.904c2.28,0.375,3.48,1.533,3.48,3.618v0.903
				C244.115,61.615,243.49,63.455,237.65,63.455z"/>
			<path fill="#FFFFFF" d="M254.93,58.427h-5.565v4.824h-2.003V46.487h7.568c4.107,0,5.359,1.811,5.359,4.524v2.891
				C260.289,56.589,259.037,58.427,254.93,58.427z M258.284,51.212c0-2.06-0.926-3.142-3.354-3.142h-5.565v8.772h5.565
				c2.453,0,3.354-1.107,3.354-3.167V51.212z"/>
		</g>
	</g>
</g>
</svg>
