<?xml version="1.0" encoding="UTF-8" standalone="no"?>
<svg width="186px" height="40px" viewBox="0 0 186 40" version="1.1" xmlns="http://www.w3.org/2000/svg" xmlns:xlink="http://www.w3.org/1999/xlink">
    <g id="Page-1" stroke="none" stroke-width="1" fill="none" fill-rule="evenodd">
        <g id="Homepage-1" transform="translate(-624.000000, -51.000000)" fill="#1c85e8">
            <g id="Header" transform="translate(40.000000, 51.000000)">
                <g id="Logo" transform="translate(584.000000, 0.000000)">
                    <path d="M19.6013,17.5557209 C19.6013,8.11572093 17.98775,4.20254264 13.55165,4.20254264 C9.63914,4.20254264 7.66289,6.94579845 7.66289,16.4667287 C7.66289,25.8661085 9.19553,29.7392868 13.71285,29.7392868 C17.70565,29.7392868 19.6013,27.036031 19.6013,17.5557209 M0,17.3138605 C0,6.70362791 7.29988,2.50827907 13.79376,2.50827907 C20.73063,2.50827907 27.26419,6.66362791 27.26419,16.6682791 C27.26419,27.3588217 19.96431,31.4335504 13.47043,31.4335504 C6.53387,31.4335504 0,26.996031 0,17.3138605" id="Fill-1"></path>
                    <path d="M39.874339,29.819907 C38.502899,29.819907 37.414179,29.2146357 36.687849,28.3675039 L36.687849,13.6828527 C37.333269,13.4409922 38.341699,12.9566512 39.954939,12.9566512 C43.020219,12.9566512 44.754669,14.9737054 44.754669,20.7426977 C44.754669,28.1256434 43.060519,29.819907 39.874339,29.819907 M43.463829,9.4471938 C40.640349,9.4471938 38.382309,10.7783566 36.687849,12.2307597 L36.486349,12.2307597 L36.564159,9.8168062 C36.571289,9.59696124 36.381569,9.42176744 36.163329,9.44657364 L30.566589,10.0794419 C30.400429,10.0983566 30.275189,10.2388217 30.275189,10.4059535 L30.275189,37.172155 L30.275189,39.6174264 C30.275189,39.8130853 30.445379,39.9656434 30.640059,39.9436279 L36.396759,39.2930853 C36.562609,39.2744806 36.687849,39.1340155 36.687849,38.9668837 L36.687849,37.172155 L36.687849,33.4912248 C36.687849,32.0794419 36.647859,31.0304496 36.647859,31.0304496 C37.535079,31.2723101 38.866219,31.4335504 39.713139,31.4335504 C46.448509,31.4335504 51.368829,27.7625426 51.368829,19.3712248 C51.368829,11.9885891 47.295429,9.4471938 43.463829,9.4471938" id="Fill-19"></path>
                    <path d="M60.112286,17.9995349 L67.008856,17.6364341 C67.008856,12.7551938 66.364056,10.98 63.943886,10.98 C61.886726,10.98 60.273486,12.9164341 60.112286,17.9995349 M53.739926,20.3796899 C53.739926,13.360155 58.942346,9.44697674 64.266286,9.44697674 C69.767236,9.44697674 73.219396,12.1654264 73.415936,19.2776744 C73.419966,19.415969 73.307436,19.5325581 73.168556,19.5325581 L60.365556,19.5325581 C60.226676,19.5325581 60.114456,19.6491473 60.117866,19.7877519 C60.298286,26.195814 62.787586,27.964186 66.887956,27.964186 C68.889316,27.964186 70.502866,27.4990698 71.853226,26.9 C71.952736,26.8556589 72.068056,26.8817054 72.139046,26.9648062 L72.675346,27.595814 C72.756256,27.6910078 72.755326,27.8317829 72.669766,27.9223256 C71.198506,29.4742636 68.203286,31.4336434 64.266286,31.4336434 C57.248506,31.4336434 53.739926,27.2379845 53.739926,20.3796899" id="Fill-5"></path>
                    <path d="M89.995883,9.44700775 C87.051813,9.44700775 84.389843,10.7784806 82.252393,12.3111938 L82.090883,12.3111938 L82.170243,9.76762791 C82.176443,9.57258915 82.008423,9.41786047 81.814983,9.43956589 L76.171123,10.0795659 C76.005273,10.0981705 75.879723,10.2383256 75.879723,10.4054574 L75.879723,30.6296434 C75.879723,30.8063876 76.022943,30.9493333 76.199333,30.9493333 L81.972773,30.9493333 C82.149163,30.9493333 82.292383,30.8063876 82.292383,30.6296434 L82.292383,13.7232868 C83.179603,13.5214264 84.631643,13.1989457 86.043693,13.1989457 C87.939033,13.1989457 88.826563,13.9654574 88.826563,16.4262326 L88.826563,30.6296434 C88.826563,30.8063876 88.969783,30.9493333 89.146173,30.9493333 L94.959913,30.9493333 C95.136303,30.9493333 95.279833,30.8063876 95.279833,30.6296434 L95.279833,14.8532093 C95.279833,11.2222016 93.424483,9.44700775 89.995883,9.44700775" id="Fill-11"></path>
                    <path d="M112.582576,27.3589147 C111.937156,27.6010853 110.848126,28.2466667 109.194586,28.2466667 C106.129306,28.2466667 104.516066,26.1889922 104.516066,19.8553488 C104.516066,13.1986047 106.532616,11.0606202 109.436386,11.0606202 C110.929036,11.0606202 111.896856,11.9077519 112.582576,12.7548837 L112.582576,27.3589147 Z M118.995236,5.49348837 C118.995236,3.40821705 119.066226,1.49224806 119.103736,0.705891473 C119.114586,0.475813953 118.919286,0.291007752 118.690196,0.311472868 L112.881416,0.971317829 C112.712156,0.986511628 112.582576,1.12821705 112.582576,1.29844961 L112.582576,6.94589147 C112.582576,8.3979845 112.663176,9.89069767 112.663176,9.89069767 C111.816256,9.64852713 110.686926,9.44697674 109.598206,9.44697674 C103.306136,9.44697674 97.901286,12.7955039 97.901286,21.1868217 C97.901286,28.5288372 101.813486,31.4336434 105.806596,31.4336434 C108.629766,31.4336434 110.888426,30.304031 112.622876,28.8116279 L112.784076,28.8116279 L112.702236,31.0382946 C112.692936,31.2755039 112.900016,31.4631008 113.134686,31.4299225 L118.668186,30.811938 C118.855736,30.7858915 118.995236,30.6252713 118.995236,30.435814 L118.995236,5.49348837 Z" id="Fill-13"></path>
                    <path d="M136.791995,20.7024806 C136.791995,12.5533333 135.219365,11.0203101 132.476485,11.0203101 C129.935415,11.0203101 128.443385,12.876124 128.443385,19.8150388 C128.443385,28.0854264 129.774215,29.86 132.718285,29.86 C135.138765,29.86 136.791995,28.4482171 136.791995,20.7024806 M121.667715,20.5009302 C121.667715,12.7548837 127.152545,9.44697674 132.597695,9.44697674 C138.445845,9.44697674 143.567975,12.9567442 143.567975,20.2990698 C143.567975,28.0448062 138.163435,31.4339535 132.597695,31.4339535 C126.749545,31.4339535 121.667715,27.8832558 121.667715,20.5009302" id="Fill-7"></path>
                    <path d="M160.847871,20.7024806 C160.847871,12.5533333 159.275241,11.0203101 156.532361,11.0203101 C153.991291,11.0203101 152.499261,12.876124 152.499261,19.8150388 C152.499261,28.0854264 153.830401,29.86 156.774471,29.86 C159.194641,29.86 160.847871,28.4482171 160.847871,20.7024806 M145.723281,20.5009302 C145.723281,12.7548837 151.208421,9.44697674 156.653261,9.44697674 C162.501411,9.44697674 167.623541,12.9567442 167.623541,20.2990698 C167.623541,28.0448062 162.219311,31.4339535 156.653261,31.4339535 C150.805421,31.4339535 145.723281,27.8832558 145.723281,20.5009302" id="Fill-9"></path>
                    <path d="M182.612506,9.44700775 C180.273246,9.44700775 177.974286,11.2222016 176.724366,12.5533643 L176.562856,12.5533643 L176.641286,9.84235659 C176.648106,9.61165891 176.448776,9.42809302 176.219376,9.45382946 L170.643096,10.079876 C170.476936,10.0984806 170.351696,10.2386357 170.351696,10.4060775 L170.351696,30.5697984 C170.351696,30.7794109 170.521576,30.9493333 170.731136,30.9493333 L176.384606,30.9493333 C176.594166,30.9493333 176.764666,30.7794109 176.764666,30.5697984 L176.764666,14.2076279 C177.329176,13.6829767 178.256696,13.1583256 178.982406,13.1583256 C179.345726,13.1583256 179.587836,13.2392558 179.829636,13.6829767 C180.595956,14.9335194 181.202626,15.6563101 182.935216,15.6563101 C184.508466,15.6563101 185.914936,14.4091783 185.914936,12.4727442 C185.914936,10.4956899 184.548456,9.44700775 182.612506,9.44700775" id="Fill-16"></path>
                </g>
            </g>
        </g>
    </g>
</svg>
