<?xml version="1.0" encoding="utf-8"?>
<!-- Generator: Adobe Illustrator 21.1.0, SVG Export Plug-In . SVG Version: 6.00 Build 0)  -->
<svg version="1.1" id="Layer_1" xmlns="http://www.w3.org/2000/svg" xmlns:xlink="http://www.w3.org/1999/xlink" x="0px" y="0px"
	 viewBox="0 0 500 148.4" style="enable-background:new 0 0 500 148.4;" xml:space="preserve">
<style type="text/css">
	.st0{fill:#99999A;}
</style>
<title>splunk-black</title>
<path d="M53.4,89.9c0.1,3.2-0.7,6.4-2.1,9.3c-1.4,2.8-3.4,5.2-5.9,7.1c-2.7,2.1-5.7,3.7-9,4.7c-3.7,1.1-7.5,1.7-11.4,1.6
	c-4.5,0.1-9-0.6-13.3-2c-4.3-1.6-8.2-3.9-11.7-6.9l6.5-10.5c2.6,2.2,5.4,4.2,8.5,5.7c2.4,1.2,5,1.8,7.7,1.8c2.8,0.1,5.6-0.7,7.8-2.5
	c2-1.7,3.1-4.2,2.9-6.7c0-1.2-0.3-2.3-0.7-3.4c-0.4-1.2-1.1-2.3-2-3.2c-1.2-1.3-2.5-2.5-3.9-3.6c-1.7-1.3-3.8-2.9-6.4-4.7
	c-2-1.4-4-2.9-5.9-4.4c-1.9-1.4-3.6-3-5.2-4.7c-1.6-1.7-2.8-3.6-3.8-5.7c-1-2.3-1.5-4.8-1.4-7.2c0-3,0.6-5.9,2-8.5
	c1.3-2.5,3.1-4.8,5.3-6.5c2.4-2.1,5.2-3.7,8.3-4.7c3.3-1,6.8-1.5,10.3-1.5c3.8,0,7.7,0.5,11.4,1.5c3.6,1.1,7,2.6,10.1,4.7l-5.8,9.3
	c-3.7-2.7-8.1-4.2-12.7-4.2c-2.4-0.1-4.8,0.6-6.7,2.1c-1.7,1.2-2.6,3.2-2.6,5.3c0,2,0.9,4,2.3,5.4c2.5,2.4,5.2,4.7,8,6.8
	c3.8,2.8,6.9,5.3,9.3,7.4c2.2,1.8,4.2,3.8,6,6c1.4,1.7,2.4,3.6,3,5.7c0.6,2.1,0.9,4.2,0.8,6.4"/>
<path d="M120,72.3c0.4-6.9-1.4-13.7-5-19.5c-3-4.6-8.2-7.3-13.6-7.1c-5.8-0.1-11.2,2.7-14.4,7.6c-3.8,6.2-5.7,13.4-5.3,20.6
	c-0.4,7,1.4,14,5.2,19.9c3.2,4.7,8.6,7.4,14.3,7.2c3.2,0.1,6.4-0.9,9-2.8c2.4-1.9,4.4-4.4,5.7-7.2c1.5-2.9,2.6-6.1,3.1-9.3
	C119.7,78.6,120,75.4,120,72.3 M141.1,71.5c0.1,5.6-0.9,11.1-2.7,16.4c-1.7,4.7-4.3,9.1-7.6,12.9c-6.5,7.5-15.9,11.8-25.8,11.8
	c-2.2,0-4.4-0.2-6.5-0.6c-2-0.5-4-1.2-5.8-2.2c-1.9-1-3.7-2.3-5.4-3.7c-2-1.7-3.8-3.6-5.5-5.6v48H62.4v-113h19.3v11
	c3.1-4.1,7.1-7.4,11.7-9.7c4.4-2.1,9.2-3.1,14-3.1c4.7-0.1,9.3,0.9,13.5,2.8c4.1,1.8,7.8,4.6,10.8,7.9c3.1,3.5,5.4,7.5,6.9,11.9
	C140.3,61.1,141.1,66.3,141.1,71.5"/>
<rect x="149.7" width="19.9" height="110.6"/>
<path d="M234.6,110.7v-10.1c-3.3,3.9-7.3,7.1-11.8,9.3c-4.4,1.9-9.2,2.9-14,2.8c-5.2,0.2-10.4-1.1-15-3.6c-4.1-2.4-7.2-6.1-8.8-10.5
	c-0.5-1.1-0.9-2.3-1.1-3.5c-0.2-1.2-0.5-2.6-0.7-4.2c-0.2-1.8-0.3-3.6-0.4-5.4c0-2,0-4.5,0-7.4V35.2h19.9v43.2
	c-0.1,2.9,0.1,5.8,0.5,8.7c0.3,1.9,1,3.7,1.9,5.4c2.5,4.3,7.3,6.8,12.3,6.4c6.6,0.5,12.9-3.2,15.5-9.3c0.7-1.7,1.2-3.5,1.5-5.4
	c0.4-2.8,0.5-5.6,0.5-8.4V35.2h19.9v75.5H234.6z"/>
<path d="M320.3,110.7v-43c0.1-2.9-0.1-5.8-0.5-8.7c-0.4-1.9-1.1-3.6-2.1-5.3c-2.5-4.3-7.3-6.8-12.3-6.3c-3.4-0.1-6.7,0.7-9.6,2.3
	c-2.7,1.6-4.8,4-6,6.9c-0.7,1.8-1.2,3.6-1.4,5.5c-0.3,2.7-0.4,5.5-0.4,8.2v40.7h-19.9V35.3h20v10.1c3.3-3.9,7.3-7.1,11.8-9.3
	c4.4-1.9,9.2-2.9,14-2.8c5.3-0.2,10.5,1.1,15,3.7c4,2.4,7.1,6.1,8.8,10.5c0.4,1.1,0.7,2.2,1.1,3.4c0.3,1.3,0.6,2.6,0.7,4
	c0.2,1.8,0.3,3.5,0.4,5.3c0,2.1,0,4.5,0,7.5v42.8L320.3,110.7z"/>
<polygon points="404,112.1 374,70.6 374,110.7 353.9,110.7 353.9,0 374,0 374,65 376.1,65 402.8,34.1 417.9,40.6 392.2,68 
	422.5,105.7 "/>
<polygon class="st0" points="439.7,108.6 439.7,95.3 486.4,72.3 439.7,49.6 439.7,36 500,66.3 500,78.6 "/>
<path class="st0" d="M445.6,16.5c3.7,0,6.8,3,6.8,6.7c0,3.7-3,6.8-6.7,6.8c-3.7,0-6.8-3-6.8-6.7c0,0,0,0,0,0
	c-0.1-3.7,2.9-6.7,6.6-6.8C445.5,16.5,445.6,16.5,445.6,16.5z M445.6,17.6c-3.1,0.1-5.5,2.6-5.4,5.7c0,0,0,0,0,0
	c0,3,2.4,5.4,5.4,5.4c3,0,5.4-2.4,5.4-5.4c0,0,0,0,0,0C451.1,20.2,448.7,17.7,445.6,17.6C445.6,17.6,445.6,17.6,445.6,17.6
	L445.6,17.6z M444.3,27.3h-1.2v-7.6c0.7-0.1,1.4-0.1,2.1,0c0.8-0.1,1.6,0.1,2.3,0.6c0.5,0.4,0.7,0.9,0.7,1.5c0,0.9-0.6,1.6-1.5,1.8
	l0,0c0.7,0,1.1,0.7,1.3,1.8c0.1,0.6,0.2,1.3,0.5,1.9h-1.3c-0.3-0.6-0.5-1.3-0.5-1.9c0-0.8-0.7-1.4-1.5-1.3c-0.1,0-0.1,0-0.2,0h-0.8
	L444.3,27.3z M444.3,23.1h0.9c1,0,1.8-0.4,1.8-1.3c0-0.9-0.5-1.3-1.8-1.3h-0.9V23.1z"/>
</svg>
