<svg xmlns="http://www.w3.org/2000/svg" viewBox="0 0 200 46"><path d="M193.4 15.3v16.1c0 3.6 0 4-2.8 4.4v.6h9v-.6c-2.7-.3-2.8-.8-2.8-4.4V16.8c0-3.6 0-5.7.1-7.6l-6.3 2.1v.6c2.8 0 2.8 0 2.8 3.4m-9.8 17.9c-.9 1-2 1.7-3.3 1.7-2.1 0-3.5-1.9-3.6-3.6-.1-1.5.7-2.3 2.1-3.2.6-.3 2-1.2 4.9-2.2l-.1 7.3zm.1 1c.1 1.7 1.4 2.6 2.8 2.6 1.7 0 2.6-1.3 3.5-2.5l-.3-.3c-.5.4-1 .7-1.5.7-.9 0-1.3-.3-1.2-2.2l.2-9c.1-4.6-2.8-5.9-6-5.9-4.5 0-7.5 3.3-7.7 6.5h3.4c-.2-3 .2-5.2 3.5-5.2 2.3 0 3.6 1.2 3.6 4.9v.8c-2.6 1.1-4.5 2-5.4 2.4-3.6 1.7-5.6 3.1-5.6 5.3 0 2.7 2.9 4.6 5.5 4.6 1.2 0 2.1-.2 2.9-.7.6-.5 1.5-1.3 2.3-2m-20.3-15.5c2.2 0 3.3 1.6 3.4 3.9h-8c.8-3 2.8-3.9 4.6-3.9m7.6 12.8c-1.2 1.2-3 2.3-5.6 2.3-4.5 0-6.8-3.7-6.8-8.7V24H171c-.5-4-3.4-6.5-7-6.5-4.7 0-8.5 4.3-8.5 9.8 0 5.5 2.6 9.6 8.3 9.6 4 0 6.4-2.9 7.6-5l-.4-.4zm-32.4-19h2.5c4.3 0 6.6 1.2 6.6 5.1s-2.3 5.2-6.6 5.2h-2.5V12.5zm2.5 11.6l10.8 12.3h4.6l-11.1-12.6c4.8-.9 6.4-3.5 6.4-6.1 0-4.6-4.7-6.4-10.6-6.4h-10v.6c3 .4 3.4.5 3.4 4.4v15c0 3.9-.4 4-3.4 4.4v.6H142v-.6c-3-.4-3.4-.5-3.4-4.4v-7.2h2.5zm-18.7-8.8v16.1c0 3.6 0 4-2.8 4.4v.6h9v-.6c-2.7-.3-2.8-.8-2.8-4.4V16.8c0-3.6 0-5.7.1-7.6l-6.3 2.1v.6c2.8 0 2.8 0 2.8 3.4m-9.8 17.9c-.9 1-2 1.7-3.3 1.7-2.1 0-3.5-1.9-3.6-3.6-.1-1.5.7-2.3 2.1-3.2.6-.3 2-1.2 4.9-2.2l-.1 7.3zm.1 1c.1 1.7 1.4 2.6 2.8 2.6 1.7 0 2.6-1.3 3.5-2.5l-.3-.3c-.5.4-1 .7-1.5.7-.9 0-1.3-.3-1.2-2.2l.2-9c.1-4.6-2.8-5.9-6-5.9-4.5 0-7.5 3.3-7.7 6.5h3.4c-.2-3 .2-5.2 3.5-5.2 2.3 0 3.6 1.2 3.6 4.9v.8c-2.6 1.1-4.5 2-5.4 2.4-3.6 1.7-5.6 3.1-5.6 5.3 0 2.7 2.9 4.6 5.5 4.6 1.2 0 2.1-.2 2.9-.7.6-.5 1.5-1.3 2.3-2M92.4 18.7c2.2 0 3.3 1.6 3.4 3.9h-8c.7-3 2.8-3.9 4.6-3.9m7.6 12.8c-1.2 1.2-3 2.3-5.6 2.3-4.5 0-6.8-3.7-6.8-8.7V24H100c-.5-4-3.4-6.5-7-6.5-4.7 0-8.5 4.3-8.5 9.8 0 5.5 2.6 9.6 8.3 9.6 4 0 6.4-2.9 7.6-5l-.4-.4zm-32.4-19H70c4.3 0 6.6 1.2 6.6 5.1s-2.3 5.2-6.6 5.2h-2.5V12.5zm2.5 11.6l10.8 12.3h4.6L74.4 23.8c4.8-.9 6.4-3.5 6.4-6.1 0-4.6-4.7-6.4-10.6-6.4h-10v.6c3 .4 3.4.5 3.4 4.4v15c0 3.9-.4 4-3.4 4.4v.6H71v-.6c-3-.4-3.4-.5-3.4-4.4v-7.2h2.5zm-21.9-5.4c2.2 0 3.3 1.6 3.4 3.9h-8c.7-3 2.7-3.9 4.6-3.9m7.5 12.8c-1.2 1.2-3 2.3-5.6 2.3-4.5 0-6.8-3.7-6.8-8.7V24h12.4c-.5-4-3.4-6.5-7-6.5-4.7 0-8.5 4.3-8.5 9.8 0 5.5 2.6 9.6 8.3 9.6 4 0 6.4-2.9 7.6-5l-.4-.4zm-35.3 4.9h9v-.6c-2.7-.3-2.8-.8-2.8-4.4v-9.9c.8-1.1 2.4-1.6 3.8-1.6 2.4 0 3.6 1.6 3.6 4.8v6.7c0 3.6 0 4-2.8 4.4v.6h9v-.6c-2.7-.3-2.8-.8-2.8-4.4V24c0-4.6-2.3-6.6-5.3-6.6-2.6 0-4.3 1.6-5.5 3.1v-5.1c0-3.6 0-4.5.1-6.3l-5.5 2.1H8.7c-2.1 0-5.1 0-7.6-.1l-1 7.6h.7c1.9-5.7 3.5-6.4 8.7-6.4h1.1v19c0 3.6-.4 4.1-3.8 4.4v.7h11.4v-.7c-3.4-.3-3.8-.8-3.8-4.4v-19h1.1c7.7 0 7.7 0 7.7 2.4v16.7c0 3.6 0 4-2.8 4.4v.6z" fill="#231f20"/></svg>